<svg width="109" height="13" viewBox="0 0 109 13" fill="none" xmlns="http://www.w3.org/2000/svg">
<path d="M0 11.4375C0 11.1979 0.0339006 10.9531 0.101601 10.7031C0.169301 10.4479 0.2605 10.237 0.375 10.0703L1.125 10.2109L1.9688 2.8984L0.765701 2.7266C0.666701 2.4661 0.617199 2.2005 0.617199 1.9297C0.617199 1.6536 0.6719 1.3724 0.7813 1.0859C1.0573 0.955699 1.5287 0.851599 2.1954 0.773399C2.8672 0.690099 3.4636 0.648399 3.9844 0.648399C4.4688 0.648399 5.0651 0.658799 5.7735 0.679699L6.0469 0.804699C6.1615 1.1276 6.3177 1.6823 6.5157 2.4687C6.7188 3.25 7.0625 4.6302 7.5469 6.6094C7.625 6.9167 7.711 7.2656 7.8047 7.6562C8.0547 6.75 8.362 5.4687 8.7266 3.8125L8.9219 2.9609H8.961L7.6641 2.7422C7.5391 2.4505 7.4766 2.138 7.4766 1.8047C7.4766 1.5859 7.5052 1.3489 7.5625 1.0937C8.0677 0.932298 8.5938 0.8177 9.1407 0.75C9.6927 0.6823 10.2943 0.648399 10.9454 0.648399H11.2032C11.4792 0.648399 11.8724 0.658799 12.3828 0.679699L12.6563 0.804699C12.9896 2.013 13.3073 3.4792 13.6094 5.2031C13.9167 6.9219 14.1485 8.5 14.3047 9.9375L14.3282 10.1328C14.3334 10.1693 14.3464 10.2943 14.3672 10.5078C14.3881 10.7161 14.3985 10.9167 14.3985 11.1094C14.3985 11.3437 14.375 11.5755 14.3282 11.8047C14.25 12.1484 14.1094 12.4323 13.9063 12.6562C13.7032 12.7396 13.4896 12.8021 13.2657 12.8437C13.0469 12.8906 12.7917 12.914 12.5 12.914C12.2136 12.914 11.9271 12.8802 11.6407 12.8125C11.3594 12.75 11.1719 12.6562 11.0782 12.5312L11.3594 10.7422L10.8907 5.8281L10.9297 3.2109H10.6875L10.3047 5.8906C9.7943 7.7812 9.3282 9.2448 8.9063 10.2812C9.0521 10.5677 9.1771 10.8854 9.2813 11.2344C9.3907 11.5833 9.4584 11.9245 9.4844 12.2578C9.2657 12.4661 8.9662 12.6276 8.586 12.7422C8.211 12.8568 7.8125 12.914 7.3907 12.914C6.9584 12.914 6.5625 12.8542 6.2032 12.7344C5.849 12.6146 5.5912 12.4479 5.4297 12.2344C5.4558 11.7083 5.586 11.2005 5.8204 10.7109L4.4297 5.6875L3.8516 3.3203L3.586 3.3594L3.9688 6.0078C3.948 6.9297 3.9141 7.8672 3.8672 8.8203C3.8204 9.7734 3.7683 10.5286 3.711 11.0859H3.7188C3.6771 11.414 3.5651 11.7057 3.3828 11.9609C3.2058 12.2109 2.9792 12.4062 2.7032 12.5469C2.4323 12.6875 2.1381 12.7578 1.8204 12.7578C0.987 12.7578 0.385501 12.3984 0.0157013 11.6797C0.00520129 11.5755 0 11.4948 0 11.4375ZM20.811 8.664C20.811 8.4297 20.837 8.2109 20.8891 8.0078C20.9412 7.7995 21.0193 7.5885 21.1235 7.375L27.0063 7.0234C27.0844 7.2422 27.1235 7.5026 27.1235 7.8047C27.1235 8.3307 26.9959 8.9114 26.7407 9.5469C26.1 9.5677 25.3839 9.5781 24.5922 9.5781C23.3162 9.5781 22.087 9.5443 20.9047 9.4766C20.8422 9.1797 20.811 8.9088 20.811 8.664ZM33.5985 6.789C33.5985 5.6068 33.773 4.5547 34.1219 3.6328C34.4761 2.7057 35.0282 1.9739 35.7782 1.4375C36.5282 0.901 37.4761 0.632799 38.6219 0.632799C39.4032 0.632799 40.2287 0.7344 41.0985 0.9375C41.3797 1.1042 41.6245 1.2786 41.8329 1.4609C42.0464 1.638 42.2495 1.8542 42.4422 2.1094C42.4422 2.4792 42.3927 2.9713 42.2938 3.5859C42.1948 4.1953 42.0698 4.7656 41.9188 5.2969C41.773 5.8229 41.6323 6.164 41.4969 6.3203C41.3615 6.388 41.2469 6.4349 41.1532 6.4609C41.0594 6.4818 40.9136 6.4922 40.7157 6.4922C40.4709 6.4922 40.2417 6.4739 40.0282 6.4375C39.8146 6.401 39.6532 6.3516 39.5438 6.289L39.2704 3.6562C38.9006 3.5521 38.3875 3.5 37.7313 3.5C37.5542 3.5 37.424 3.5026 37.3407 3.5078C37.1167 4.2266 36.9917 5.1927 36.9657 6.4062C36.9605 6.5521 36.9579 6.7734 36.9579 7.0703C36.9579 7.7682 36.9943 8.3333 37.0672 8.7656C37.1349 9.1719 37.2079 9.4766 37.286 9.6797C37.3641 9.8828 37.4995 10.039 37.6922 10.1484C37.8901 10.2578 38.1844 10.3125 38.575 10.3125C39.1011 10.3125 39.5855 10.237 40.0282 10.0859C40.4761 9.9297 40.9631 9.7031 41.4891 9.4062C41.687 9.6198 41.8381 9.7943 41.9422 9.9297C42.0516 10.0651 42.1506 10.2318 42.2391 10.4297C42.3329 10.6276 42.3954 10.8542 42.4266 11.1094C42.3433 11.2812 42.1219 11.5104 41.7625 11.7969C41.4032 12.0833 40.9318 12.3411 40.3485 12.5703C39.7651 12.7995 39.1115 12.914 38.3875 12.914C36.6948 12.914 35.4735 12.3854 34.7235 11.3281C33.9735 10.2708 33.5985 8.7578 33.5985 6.789ZM44.0157 8.1406C44.0157 7.1979 44.1667 6.3802 44.4688 5.6875C44.7709 4.9948 45.2344 4.4583 45.8594 4.0781C46.4844 3.6927 47.2683 3.5 48.211 3.5C49.2526 3.5 50.0704 3.6953 50.6641 4.0859C51.2576 4.4713 51.6716 5.0078 51.9066 5.6953C52.1456 6.3828 52.2656 7.2239 52.2656 8.2187C52.2656 9.1198 52.1066 9.9245 51.7896 10.6328C51.4766 11.3359 51.0026 11.8932 50.3672 12.3047C49.737 12.7109 48.9636 12.914 48.0469 12.914C46.6302 12.914 45.6042 12.4792 44.9688 11.6094C44.3334 10.7344 44.0157 9.5781 44.0157 8.1406ZM48.3672 10.625C48.6328 10.625 48.7943 10.6042 48.8516 10.5625C48.9714 10.3542 49.0625 10.0599 49.125 9.6797C49.1875 9.2995 49.2188 8.888 49.2188 8.4453C49.2188 8.039 49.1927 7.6588 49.1407 7.3047C49.0886 6.9453 49.0157 6.664 48.9219 6.4609C48.8646 6.3932 48.75 6.3437 48.5782 6.3125C48.4063 6.276 48.2188 6.2578 48.0157 6.2578C47.75 6.2578 47.5677 6.2864 47.4688 6.3437C47.2084 6.7917 47.0782 7.414 47.0782 8.2109C47.0782 8.5859 47.1068 8.9687 47.1641 9.3594C47.2214 9.75 47.2943 10.1042 47.3828 10.4219C47.4454 10.4896 47.573 10.5417 47.7657 10.5781C47.9584 10.6094 48.1589 10.625 48.3672 10.625ZM54.8546 10.039C54.8546 9.1901 54.8656 8.5495 54.8856 8.1172C54.9066 7.6797 54.9616 7.039 55.0496 6.1953L54.1516 6.0781C54.0426 5.7396 53.9696 5.4375 53.9326 5.1719C53.9016 4.9062 53.8856 4.5625 53.8856 4.1406C53.9696 4.0677 54.1076 3.9818 54.2996 3.8828C54.4976 3.7786 54.7296 3.6901 54.9956 3.6172C55.2666 3.539 55.5396 3.5 55.8156 3.5C56.4456 3.5 56.8916 3.6354 57.1516 3.9062C57.4176 4.1771 57.5496 4.5833 57.5496 5.125C57.5496 5.4271 57.5056 5.8359 57.4176 6.3516C57.2716 7.1797 57.1986 7.6146 57.1986 7.6562C57.1986 7.6823 57.2166 7.7083 57.2536 7.7344C57.2896 7.7552 57.3286 7.7656 57.3706 7.7656C57.4176 7.7656 57.4486 7.7474 57.4636 7.7109C57.4586 7.7318 57.5186 7.4687 57.6436 6.9219C57.7946 6.2031 57.9486 5.6172 58.1046 5.164C58.2666 4.7109 58.5216 4.3229 58.8706 4C59.2196 3.6771 59.6936 3.5156 60.2926 3.5156C61.0316 3.5156 61.5656 3.7292 61.8936 4.1562C62.2216 4.5781 62.3856 5.1406 62.3856 5.8437C62.3856 6.401 62.2926 7.0208 62.1046 7.7031C62.1046 7.7292 62.1226 7.7552 62.1596 7.7812C62.1956 7.8021 62.2346 7.8125 62.2766 7.8125C62.3236 7.8125 62.3546 7.7943 62.3706 7.7578L62.4796 7.3203C62.6676 6.5495 62.8526 5.9088 63.0346 5.3984C63.2216 4.888 63.5006 4.4479 63.8706 4.0781C64.2456 3.7031 64.7326 3.5156 65.3316 3.5156C66.1176 3.5156 66.6826 3.7682 67.0266 4.2734C67.3756 4.7786 67.5496 5.414 67.5496 6.1797C67.5496 6.7213 67.4976 7.2656 67.3936 7.8125C67.2946 8.3594 67.1876 8.8177 67.0736 9.1875C66.9636 9.5573 66.8286 9.9844 66.6676 10.4687L66.6826 10.4844L67.8386 10C68.2456 10.3489 68.4826 10.8125 68.5496 11.3906C68.5496 11.4271 68.4326 11.5781 68.1986 11.8437C67.9636 12.1042 67.6546 12.3489 67.2686 12.5781C66.8886 12.8021 66.4506 12.914 65.9566 12.914C65.4616 12.914 65.0576 12.7812 64.7456 12.5156C64.4326 12.25 64.2766 11.7969 64.2766 11.1562C64.2766 10.4427 64.2896 9.7109 64.3156 8.9609C64.3466 8.2057 64.3916 7.5286 64.4486 6.9297C64.3596 6.8568 64.2376 6.8177 64.0816 6.8125C63.9246 6.9635 63.7296 7.2943 63.4956 7.8047C63.2606 8.3099 63.0446 8.8516 62.8466 9.4297C62.6486 10.0026 62.5236 10.4505 62.4716 10.7734C62.5446 11.2838 62.6566 11.789 62.8076 12.289C62.7136 12.4661 62.5216 12.6146 62.2296 12.7344C61.9376 12.8542 61.5786 12.914 61.1516 12.914C60.7666 12.914 60.4636 12.8828 60.2456 12.8203C60.0266 12.7578 59.8756 12.6927 59.7926 12.625C59.7136 12.5573 59.6746 12.513 59.6746 12.4922C59.6696 12.4453 59.6566 12.3229 59.6356 12.125C59.6156 11.9219 59.5946 11.6406 59.5736 11.2812C59.5526 10.9167 59.5426 10.5026 59.5426 10.039C59.5426 9.5963 59.5756 9.0417 59.6436 8.375C59.6486 8.2917 59.6646 8.0937 59.6906 7.7812C59.7166 7.4687 59.7296 7.1849 59.7296 6.9297C59.6416 6.8568 59.5186 6.8177 59.3626 6.8125C59.2736 6.8802 59.0266 7.3125 58.6206 8.1094C58.2136 8.9062 57.9436 9.4687 57.8076 9.7969C57.7976 9.8698 57.7926 9.9401 57.7926 10.0078C57.7926 10.2682 57.8316 10.6198 57.9096 11.0625C57.9876 11.5 58.0836 11.9088 58.1986 12.289C58.1046 12.4661 57.9116 12.6146 57.6206 12.7344C57.3286 12.8542 56.9696 12.914 56.5426 12.914C56.1566 12.914 55.8466 12.8828 55.6126 12.8203C55.3836 12.7578 55.2216 12.6927 55.1286 12.625C55.0346 12.5521 54.9876 12.5078 54.9876 12.4922C54.9826 12.4453 54.9696 12.3229 54.9486 12.125C54.9276 11.9219 54.9066 11.6406 54.8856 11.2812C54.8656 10.9167 54.8546 10.5026 54.8546 10.039ZM69.8496 8.2187C69.8496 7.3177 70.0006 6.513 70.3036 5.8047C70.6056 5.0963 71.0716 4.5364 71.7016 4.125C72.3366 3.7083 73.1286 3.5 74.0766 3.5C74.5716 3.5 75.0666 3.5599 75.5606 3.6797C76.0556 3.7943 76.4746 3.987 76.8186 4.2578C77.1366 4.513 77.3656 4.8516 77.5066 5.2734C77.6526 5.6901 77.7246 6.1536 77.7246 6.664C77.7246 7.0026 77.6966 7.3489 77.6386 7.7031C77.5766 7.8073 77.4546 7.9453 77.2716 8.1172C77.0896 8.2838 76.8756 8.4479 76.6316 8.6094C76.3866 8.7708 76.1496 8.8958 75.9206 8.9844C75.7016 9 75.4746 9.0078 75.2406 9.0078C74.8296 9.0078 74.4126 8.9896 73.9906 8.9531C73.5686 8.9167 73.1986 8.875 72.8816 8.8281C72.9226 9.2708 73.0586 9.6562 73.2876 9.9844C73.5166 10.3125 73.8816 10.4766 74.3816 10.4766C74.4286 10.4766 74.5036 10.4713 74.6076 10.4609C74.9256 10.4297 75.2956 10.3463 75.7176 10.2109C76.1446 10.0703 76.5686 9.9088 76.9906 9.7266C77.1886 9.9245 77.3346 10.1224 77.4286 10.3203C77.5216 10.5182 77.5866 10.8021 77.6236 11.1719C77.4616 11.3594 77.1986 11.5885 76.8346 11.8594C76.4746 12.1302 76.0346 12.375 75.5136 12.5937C74.9936 12.8073 74.4486 12.914 73.8816 12.914C73.0276 12.914 72.2956 12.7083 71.6856 12.2969C71.0816 11.8802 70.6236 11.3177 70.3106 10.6094C70.0036 9.8958 69.8496 9.0989 69.8496 8.2187ZM74.8816 6.4219C74.8086 6.3437 74.6856 6.2838 74.5136 6.2422C74.3426 6.1953 74.1626 6.1719 73.9746 6.1719C73.8236 6.1719 73.6706 6.1849 73.5136 6.2109C73.3626 6.237 73.2716 6.2656 73.2406 6.2969C73.0636 6.6458 72.9516 7.0417 72.9046 7.4844L74.9906 7.2812L74.8816 6.4219ZM80.3066 10C80.7646 10.1823 81.1316 10.3229 81.4076 10.4219C81.6836 10.5208 81.9856 10.6068 82.3146 10.6797C82.6476 10.7526 82.9786 10.789 83.3066 10.789C83.4526 10.789 83.5566 10.776 83.6186 10.75C83.6346 10.7292 83.6476 10.6979 83.6576 10.6562C83.6736 10.6094 83.6816 10.5625 83.6816 10.5156C83.6816 10.4114 83.6216 10.3255 83.5016 10.2578C83.3146 10.1536 82.9806 9.9896 82.5016 9.7656C81.8456 9.4531 81.3246 9.1745 80.9396 8.9297C80.5586 8.6849 80.2356 8.3594 79.9706 7.9531C79.7096 7.5469 79.5796 7.0364 79.5796 6.4219C79.5796 5.5417 79.8426 4.8359 80.3686 4.3047C80.8946 3.7682 81.7286 3.5 82.8686 3.5C84.2286 3.5 85.2856 3.6771 86.0406 4.0312C86.0776 4.1823 86.0956 4.3724 86.0956 4.6016C86.0956 5.039 86.0276 5.487 85.8926 5.9453C85.7566 6.3984 85.5796 6.7344 85.3606 6.9531C85.0646 6.8542 84.6446 6.6953 84.1036 6.4766C83.7076 6.3203 83.3926 6.2005 83.1576 6.1172C82.9286 6.0286 82.7176 5.9661 82.5246 5.9297C82.4206 5.9557 82.3376 6.0182 82.2746 6.1172C82.2126 6.2109 82.1816 6.3229 82.1816 6.4531C82.1816 6.5677 82.2156 6.664 82.2826 6.7422C82.3506 6.8203 82.4256 6.8828 82.5096 6.9297C82.5976 6.9713 82.7226 7.0286 82.8846 7.1016C82.9676 7.138 83.0456 7.1719 83.1186 7.2031C83.1916 7.2292 83.2596 7.2552 83.3216 7.2812C83.7286 7.4531 84.0486 7.5937 84.2826 7.7031C84.5176 7.8125 84.7436 7.9427 84.9626 8.0937C85.3636 8.3698 85.6786 8.6849 85.9076 9.039C86.1366 9.3932 86.2516 9.7812 86.2516 10.2031C86.2516 10.7864 86.0846 11.2917 85.7516 11.7187C85.4236 12.1406 85.0016 12.4479 84.4856 12.6406C84.2156 12.7396 83.9186 12.8099 83.5956 12.8516C83.2776 12.8984 82.9056 12.9219 82.4786 12.9219C81.9726 12.9219 81.4526 12.8255 80.9156 12.6328C80.3846 12.4349 79.9786 12.1068 79.6966 11.6484C79.7026 11.3307 79.7436 11.0547 79.8216 10.8203C79.9056 10.5807 80.0666 10.3073 80.3066 10ZM88.5596 8.4453C88.5596 7.5963 88.5726 6.8229 88.5986 6.125L87.7466 5.9766C87.6796 5.7161 87.6326 5.487 87.6066 5.289C87.5806 5.0911 87.5676 4.8802 87.5676 4.6562L87.5826 4.5C87.5986 4.4271 87.6066 4.3672 87.6066 4.3203L88.7386 4.0703C88.7656 3.7474 88.8246 3.3828 88.9186 2.9766C89.0126 2.5703 89.1116 2.2708 89.2156 2.0781C89.3826 1.9531 89.5826 1.8594 89.8176 1.7969C90.0516 1.7344 90.3046 1.7031 90.5746 1.7031C90.8046 1.7031 91.0256 1.7266 91.2386 1.7734C91.4576 1.8151 91.6476 1.8724 91.8096 1.9453C91.8246 2.1224 91.8326 2.3255 91.8326 2.5547C91.8326 2.9297 91.8146 3.3542 91.7786 3.8281L93.1536 3.5781C93.3456 3.9114 93.4426 4.2734 93.4426 4.664C93.4426 4.9349 93.4086 5.1797 93.3406 5.3984C93.2786 5.6172 93.1896 5.8646 93.0746 6.1406C92.7316 6.1979 92.2596 6.2344 91.6606 6.25C91.5876 7.0989 91.4266 8.3463 91.1766 9.9922L91.1376 10.2578L91.1536 10.2734L92.9886 9.7031C93.3696 10.0208 93.6006 10.5104 93.6846 11.1719C93.6846 11.2083 93.5156 11.3802 93.1766 11.6875C92.8436 11.9896 92.4236 12.2708 91.9186 12.5312C91.4136 12.7864 90.8636 12.914 90.2706 12.914C89.2336 12.914 88.6816 12.2812 88.6136 11.0156C88.5776 10.375 88.5596 9.5182 88.5596 8.4453ZM95.3746 1.5469C95.3746 1.0885 95.5236 0.716099 95.8206 0.429699C96.1226 0.143199 96.6016 0 97.2576 0C97.9136 0 98.3906 0.143199 98.6876 0.429699C98.9896 0.716099 99.1406 1.0885 99.1406 1.5469C99.1406 1.8073 99.0496 2.0469 98.8676 2.2656C98.6906 2.4844 98.4556 2.6588 98.1636 2.789C97.8726 2.914 97.5706 2.9766 97.2576 2.9766C96.9196 2.9766 96.6046 2.9036 96.3126 2.7578C96.0256 2.6068 95.7966 2.4193 95.6246 2.1953C95.4586 1.9713 95.3746 1.7552 95.3746 1.5469ZM94.9926 6.0156C94.9246 5.7604 94.8776 5.5286 94.8516 5.3203C94.8256 5.1068 94.8126 4.8854 94.8126 4.6562L94.8206 4.4375C94.9296 4.2969 95.0986 4.1562 95.3286 4.0156C95.5626 3.8698 95.8336 3.7474 96.1406 3.6484C96.4536 3.5495 96.7756 3.5 97.1096 3.5C97.8386 3.5 98.3566 3.664 98.6636 3.9922C98.9716 4.3203 99.1246 4.8307 99.1246 5.5234C99.1246 5.9401 99.0656 6.4844 98.9456 7.1562C98.8306 7.8281 98.6906 8.4818 98.5236 9.1172C98.3616 9.7474 98.2216 10.1979 98.1016 10.4687L98.1176 10.4844L99.2736 10.0625C99.4816 10.2396 99.6376 10.4349 99.7426 10.6484C99.8516 10.862 99.9216 11.1094 99.9536 11.3906C99.9536 11.4271 99.8386 11.5781 99.6096 11.8437C99.3806 12.1042 99.0756 12.3489 98.6956 12.5781C98.3206 12.8021 97.8856 12.914 97.3906 12.914C96.8906 12.914 96.4846 12.7786 96.1716 12.5078C95.8646 12.237 95.7106 11.7734 95.7106 11.1172C95.7106 10.3516 95.7316 9.539 95.7736 8.6797C95.8156 7.8203 95.8806 6.987 95.9686 6.1797L94.9926 6.0156ZM101.363 8.2187C101.363 7.3177 101.514 6.513 101.816 5.8047C102.118 5.0963 102.584 4.5364 103.215 4.125C103.85 3.7083 104.642 3.5 105.59 3.5C105.912 3.5 106.282 3.5208 106.699 3.5625C107.121 3.5989 107.524 3.6562 107.91 3.7344L108.066 3.8437C108.3 4.0052 108.472 4.1354 108.582 4.2344C108.696 4.3281 108.816 4.4609 108.941 4.6328C108.941 4.914 108.902 5.3021 108.824 5.7969C108.751 6.2864 108.657 6.7422 108.543 7.164C108.428 7.5859 108.319 7.8568 108.215 7.9766C108.043 8.0651 107.764 8.1094 107.379 8.1094C107.191 8.1094 107.014 8.0963 106.847 8.0703C106.686 8.039 106.563 8 106.48 7.9531L106.316 6.5078C106.238 6.4193 106.058 6.3489 105.777 6.2969C105.501 6.2396 105.246 6.2109 105.011 6.2109C104.938 6.2109 104.871 6.2161 104.808 6.2266C104.688 6.4713 104.597 6.7838 104.535 7.164C104.472 7.5443 104.441 7.9323 104.441 8.3281C104.441 8.901 104.535 9.388 104.722 9.789C104.91 10.1849 105.293 10.3828 105.871 10.3828C106.157 10.3828 106.438 10.3359 106.715 10.2422C106.996 10.1484 107.35 10.0052 107.777 9.8125C107.954 9.7292 108.087 9.6693 108.175 9.6328C108.384 9.8411 108.548 10.0599 108.668 10.289C108.787 10.5182 108.866 10.8125 108.902 11.1719C108.569 11.5625 108.1 11.9505 107.496 12.3359C106.897 12.7213 106.196 12.914 105.394 12.914C104.54 12.914 103.808 12.7083 103.199 12.2969C102.595 11.8802 102.136 11.3177 101.824 10.6094C101.517 9.8958 101.363 9.0989 101.363 8.2187Z" fill="#EF4F8B"/>
</svg>
