<svg width="24" height="24" viewBox="0 0 24 24" fill="none"
    xmlns="http://www.w3.org/2000/svg">
    <path fill-rule="evenodd" clip-rule="evenodd" d="M7.14287 6H2.85721H2L2.00008 5L2 4.5L2 4H7.99992V4.5L8 5L7.99992 6H7.14287ZM2.85721 13H7.14287H7.99992L8 12L7.99992 11.5V11H2L2 11.5L2.00008 12L2 13H2.85721ZM4.85738 20H19.1429H21.9997L22 19C22 18.7348 21.9997 18.5 21.9997 18.5V18H2.00001L2 18.5C2 18.5 2.00028 18.7348 2.00028 19L2 20H4.85738ZM15.5 15C16.4131 15 17.2742 14.7776 18.0322 14.3838L20.0874 16.439L20.0858 16.4141L20.793 15.707L21.1465 15.3535L21.5 15L19.6202 13.1433C20.4788 12.1731 21 10.8975 21 9.5C21 6.4624 18.5375 4 15.5 4C12.4625 4 10 6.4624 10 9.5C10 12.5376 12.4625 15 15.5 15ZM15.5 13C17.433 13 19 11.4331 19 9.5C19 7.56689 17.433 6 15.5 6C13.567 6 12 7.56689 12 9.5C12 11.4331 13.567 13 15.5 13Z" fill="#AEB1BA"/>
</svg>
