<svg width="12" height="14" viewBox="0 0 12 14" fill="none" xmlns="http://www.w3.org/2000/svg">
<path d="M2.66667 3.00004V1.00004C2.66667 0.82323 2.7369 0.65366 2.86193 0.528636C2.98695 0.403612 3.15652 0.333374 3.33333 0.333374H11.3333C11.5101 0.333374 11.6797 0.403612 11.8047 0.528636C11.9298 0.65366 12 0.82323 12 1.00004V10.3334C12 10.5102 11.9298 10.6798 11.8047 10.8048C11.6797 10.9298 11.5101 11 11.3333 11H9.33333V13C9.33333 13.368 9.03333 13.6667 8.662 13.6667H0.671333C0.583418 13.6672 0.496265 13.6504 0.414882 13.6171C0.333498 13.5839 0.259489 13.5349 0.197106 13.4729C0.134723 13.411 0.0851953 13.3373 0.0513695 13.2561C0.0175437 13.175 8.62495e-05 13.088 0 13L0.00200001 3.66671C0.00200001 3.29871 0.302 3.00004 0.672667 3.00004H2.66667ZM1.33467 4.33337L1.33333 12.3334H8V4.33337H1.33467ZM4 3.00004H9.33333V9.66671H10.6667V1.66671H4V3.00004ZM2.66667 6.33337H6.66667V7.66671H2.66667V6.33337ZM2.66667 9.00004H6.66667V10.3334H2.66667V9.00004Z" fill="#1B1D25"/>
</svg>
