<svg width="173" height="32" viewBox="0 0 173 32" fill="none" xmlns="http://www.w3.org/2000/svg">
<g clip-path="url(#clip0_317_79884)">
<path d="M60.5527 29.7022H75.3731V25.6939H64.7611V16.8083H74.0723V12.802H64.7611V6.48793H75.3731V2.48169H60.5527V29.7022Z" fill="#231F20"/>
<path d="M157.489 29.7022H172.308V25.6939H161.698V16.8083H171.009V12.802H161.698V6.48793H172.308V2.48169H157.489V29.7022Z" fill="#231F20"/>
<path d="M91.6199 2.48169H87.4136V29.7022H102.167V25.6939H91.6199V2.48169Z" fill="#231F20"/>
<path d="M118.502 2.48169H114.293V29.7022H118.502V2.48169Z" fill="#231F20"/>
<path d="M140.23 13.2136L138.449 12.5083C136.355 11.6771 135.29 10.6081 135.29 9.33728C135.29 8.43812 135.671 7.7088 136.467 7.10337C137.179 6.52527 138.066 6.21729 138.977 6.23218C140.546 6.23218 141.723 6.93552 142.555 8.37817L142.804 8.80577H146.75C146.75 8.80577 146.64 7.94658 145.871 6.38004C145.102 4.81351 142.765 2.2759 139.037 2.28788C136.956 2.28788 135.145 2.90131 133.648 4.11417C132.876 4.73512 132.255 5.52984 131.834 6.43602C131.414 7.34221 131.205 8.33524 131.225 9.33728C131.225 12.2765 133.148 14.5903 136.936 16.2128L138.651 16.9521C139.94 17.5116 140.884 18.0591 141.454 18.5786C141.839 18.9154 142.145 19.3345 142.352 19.8061C142.558 20.2776 142.66 20.7898 142.649 21.3061C142.68 22.4775 142.257 23.6141 141.472 24.4711C141.106 24.8898 140.654 25.2218 140.148 25.4438C139.643 25.6657 139.095 25.7723 138.545 25.7559C137.972 25.7725 137.401 25.6725 136.866 25.4618C136.331 25.2512 135.843 24.9341 135.429 24.529C134.59 23.7138 134.274 22.7207 134.211 21.4479L134.195 20.5847L130.052 20.6007C130.009 21.2196 130.039 21.8415 130.142 22.453C130.317 23.6339 131.288 26.1635 132.787 27.5702C134.278 28.9782 136.247 29.7418 138.28 29.7002C140.666 29.7002 142.69 28.9009 144.293 27.3264C145.896 25.7519 146.72 23.7298 146.72 21.3061C146.72 19.214 146.089 17.4617 144.841 16.0929C143.817 14.992 142.269 14.0229 140.23 13.2136Z" fill="#231F20"/>
<path d="M31.387 32C34.609 31.9997 37.7531 30.991 40.3935 29.1104C43.0338 27.2297 45.0429 24.568 46.1485 21.4858H42.7995C41.4424 24.4103 39.0534 26.7069 36.1084 27.9181C33.1634 29.1293 29.8785 29.1663 26.908 28.0217C26.0606 28.8447 25.1285 29.5723 24.1279 30.1917C26.3687 31.3827 28.8594 32.0031 31.387 32V32Z" fill="#A78242"/>
<path d="M15.7091 0C11.5429 0.000529817 7.54758 1.68631 4.60166 4.68659C1.65575 7.68687 0.000520216 11.756 0 15.999C0.0017862 16.6543 0.0424055 17.3089 0.121638 17.9592H15.2167C15.1385 17.3088 15.0992 16.6542 15.0989 15.999C15.0989 15.4875 15.1343 14.962 15.1853 14.4325H3.18812C3.42052 12.5009 4.08065 10.6482 5.11871 9.0144C6.15678 7.38056 7.54566 6.00819 9.18054 5.00084C10.8154 3.9935 12.6536 3.37749 14.5564 3.19931C16.4591 3.02114 18.3768 3.28544 20.1646 3.97228L20.251 4.00624C21.3907 4.45613 22.4601 5.07269 23.4253 5.83653L23.445 5.85252L24.0002 6.29011L23.9845 6.30209C26.2292 8.24572 27.7137 10.946 28.1673 13.911H31.2868C30.347 5.99838 23.7353 0 15.7091 0Z" fill="#A78242"/>
<path d="M15.7092 28.853C13.3168 28.8527 10.9736 28.1601 8.95272 26.8557C6.93185 25.5514 5.31648 23.6892 4.29479 21.4859H0.947754C2.05364 24.5679 4.06274 27.2294 6.70305 29.11C9.34335 30.9906 12.4873 31.9995 15.7092 32C23.6001 32 30.0784 26.2674 31.1947 18.5466H28.0556C26.9746 24.523 21.8913 28.853 15.7092 28.853Z" fill="#A78242"/>
<path d="M31.387 -3.14023e-07C28.8602 -0.00624576 26.3695 0.610776 24.1279 1.79831C25.1298 2.4175 26.0632 3.14503 26.9119 3.96828C28.7002 3.27854 30.6192 3.01179 32.5236 3.18817C34.4281 3.36454 36.2683 3.97944 37.9052 4.9864C39.5421 5.99335 40.9328 7.36603 41.9724 9.00072C43.012 10.6354 43.6732 12.4894 43.906 14.4225H19.4467C19.4447 14.4467 19.4408 14.4708 19.435 14.4944C19.3756 14.9903 19.3455 15.4894 19.3447 15.989C19.3452 16.615 19.3911 17.2401 19.4821 17.8593C19.486 17.8896 19.4919 17.9196 19.4997 17.9492H46.9666C47.2435 15.6993 47.0468 13.4151 46.3897 11.2487C45.7326 9.08219 44.6301 7.08303 43.1555 5.38413C41.681 3.68523 39.8682 2.32554 37.8377 1.39548C35.8072 0.465421 33.6056 -0.0136875 31.3792 -0.00998851L31.387 -3.14023e-07Z" fill="#A78242"/>
<path d="M19.015 18.5466C18.9758 18.3468 18.9404 18.147 18.913 17.9592C18.8159 17.3105 18.7674 16.6552 18.7678 15.999C18.7684 15.4754 18.7998 14.9523 18.862 14.4325C18.8875 14.2327 18.913 14.0328 18.9463 13.843C19.4329 10.922 20.8961 8.26211 23.0879 6.31408C22.2336 5.63935 21.2947 5.08363 20.2961 4.66162C18.8317 6.14931 17.6694 7.91628 16.8756 9.86158C16.0818 11.8069 15.6721 13.8924 15.6699 15.999C15.6694 16.8521 15.735 17.704 15.8661 18.5466C16.3907 21.8754 17.9367 24.9495 20.2824 27.3284C21.281 26.9077 22.2204 26.354 23.0762 25.6819C20.9894 23.8226 19.5622 21.3149 19.015 18.5466V18.5466Z" fill="#A78242"/>
</g>
<defs>
<clipPath id="clip0_317_79884">
<rect width="172.308" height="32" fill="white"/>
</clipPath>
</defs>
</svg>
