<svg width="273" height="275" viewBox="0 0 273 275" fill="none"
    xmlns="http://www.w3.org/2000/svg">
    <g clip-path="url(#clip0_1413_120694)">
        <path d="M136.5 275C211.887 275 273 213.968 273 138.68C273 63.3928 211.887 2.36035 136.5 2.36035C61.1131 2.36035 0 63.3928 0 138.68C0 213.968 61.1131 275 136.5 275Z" fill="url(#paint0_linear_1413_120694)"/>
        <path d="M272.281 156.014C257.238 149.451 237.652 146.309 225.411 150.89C213.943 155.182 215.778 163.707 203.996 167.233C184.989 172.915 171.826 153.221 143.539 154.157C118.374 154.988 109.634 171.212 90.6417 167.233C78.7847 164.743 76.5409 157.274 68.0994 151.976C53.9587 143.127 26.8094 143.217 0.707031 148.281C3.00495 181.33 17.3126 212.403 40.94 235.657C66.7232 240.417 94.7901 242.962 122.129 241.946C170.21 240.168 218.86 227.306 251.963 211.994C262.809 195.07 269.75 175.948 272.281 156.014Z" fill="#F4F4F4"/>
        <path d="M82.5565 57.484H54.8536C53.9924 57.4846 53.1395 57.3157 52.3437 56.9869C51.5479 56.6581 50.8248 56.1757 50.2159 55.5676C49.6069 54.9594 49.1239 54.2373 48.7946 53.4425C48.4654 52.6478 48.2962 51.796 48.2969 50.9359C48.2956 50.0754 48.4643 49.2231 48.7932 48.4278C49.1222 47.6324 49.605 46.9097 50.2141 46.301C50.8231 45.6923 51.5464 45.2096 52.3426 44.8804C53.1387 44.5513 53.992 44.3822 54.8536 44.3828H82.5565C83.4195 44.3809 84.2743 44.5489 85.0722 44.8773C85.87 45.2058 86.5951 45.6882 87.206 46.2969C87.8169 46.9056 88.3016 47.6287 88.6323 48.4247C88.963 49.2207 89.1332 50.0741 89.1332 50.9359C89.1319 52.673 88.44 54.3385 87.2095 55.5664C85.9791 56.7943 84.3109 57.484 82.5715 57.484H82.5565Z" fill="white"/>
        <path d="M76.0029 48.8051C77.2754 43.4706 73.9768 38.116 68.6353 36.8452C63.2938 35.5743 57.9321 38.8685 56.6596 44.203C55.387 49.5374 58.6856 54.892 64.0271 56.1629C69.3686 57.4337 74.7304 54.1396 76.0029 48.8051Z" fill="white"/>
        <path d="M212.419 36.5699H163.984C160.942 36.5699 158.025 35.3633 155.875 33.2154C153.724 31.0676 152.516 28.1545 152.516 25.117C152.516 22.0795 153.724 19.1664 155.875 17.0186C158.025 14.8707 160.942 13.6641 163.984 13.6641H212.419C215.46 13.6641 218.377 14.8707 220.528 17.0186C222.679 19.1664 223.887 22.0795 223.887 25.117C223.887 28.1545 222.679 31.0676 220.528 33.2154C218.377 35.3633 215.46 36.5699 212.419 36.5699Z" fill="white"/>
        <path d="M196.317 29.6324C203.105 22.8534 203.105 11.8624 196.317 5.08344C189.529 -1.69554 178.524 -1.6955 171.736 5.08348C164.948 11.8625 164.948 22.8534 171.736 29.6323C178.524 36.4113 189.529 36.4113 196.317 29.6324Z" fill="white"/>
        <path d="M90.8261 90.8021C90.8261 90.8021 87.9192 88.3521 87.7048 88.5065C87.4904 88.6609 87.8194 90.0601 87.8194 90.0601C87.8194 90.0601 85.8549 88.5663 85.0073 89.4128C84.1596 90.2593 86.6826 95.7318 89.1557 96.3841L90.8261 90.8021Z" fill="#F8BBB1"/>
        <path d="M189.641 87.9734C189.641 87.9734 192.548 85.5185 192.762 85.6778C192.976 85.8372 192.647 87.2265 192.647 87.2265C192.647 87.2265 194.612 85.7326 195.459 86.5791C196.307 87.4257 193.784 92.9032 191.311 93.5505L189.641 87.9734Z" fill="#F8BBB1"/>
        <path d="M193.343 92.7638L189.648 87.366C183.201 91.0608 174.097 91.25 163.003 88.2175C154.885 86.0016 149.216 83.5815 140.136 83.5815C131.057 83.5815 122.131 89.9952 117.614 91.2301C106.52 94.2577 97.4201 94.0685 90.9731 90.3786L87.2734 95.7715C87.2734 95.7715 102.406 108.519 124.774 105.093C124.221 112.592 122.984 124.055 123.363 125.823C124.26 129.971 155.434 130.16 156.944 125.435C157.388 124.05 155.299 109.5 154.985 101.946C177.811 105.835 193.343 92.7638 193.343 92.7638Z" fill="#A68242"/>
        <path d="M148.347 76.5455L148.417 81.2163H147.719C147.719 81.2163 147.161 85.0854 144.423 84.4729C143.641 84.2986 142.638 83.6314 142.349 83.7658C142.06 83.9003 141.851 84.9808 141.781 85.2895C141.482 86.4597 137.378 85.2895 138.041 84.0745C138.704 82.8595 139.617 81.3806 139.417 80.9474C138.719 79.4535 138.525 75.6989 142.294 74.4491C145.301 73.4333 148.318 74.9421 148.347 76.5455Z" fill="#FFCBC4"/>
        <path d="M138.041 84.0544C138.674 82.9141 139.617 81.3605 139.417 80.9272C139.417 80.9272 141.003 83.3622 142.464 83.7307C142.424 83.7224 142.384 83.7224 142.344 83.7307C142 83.8901 141.845 84.9457 141.776 85.2545C141.486 86.4396 137.378 85.2445 138.041 84.0544Z" fill="#FFCBC3"/>
        <path d="M142.021 78.8361C140.256 78.5374 141.353 82.4563 139.413 82.3218C137.474 82.1874 136.117 77.9498 137.538 74.6832C138.959 71.4166 141.677 71.5959 144.26 72.0391C146.842 72.4822 150.009 73.6524 150.009 75.6044C150.009 80.3001 144.439 76.3613 144.075 77.7705C143.791 78.861 143.352 82.0181 144.484 82.0927C145.616 82.1674 146.773 81.2313 147.665 81.4703C148.164 81.6097 149.6 87.7694 145.895 87.9736C142.19 88.1777 141.298 84.946 142.071 82.3019C142.809 79.7972 142.878 78.9805 142.021 78.8361Z" fill="black"/>
        <path d="M104.854 147.863C98.6567 147.863 91.5714 144.487 85.9072 138.84C80.2429 133.193 76.8125 126.077 76.8125 119.853C76.8125 116.028 79.8939 113.574 82.8756 111.203C85.8573 108.833 88.6346 106.607 88.7742 103.171C88.859 101.179 88.0313 99.825 87.1587 98.4108C86.1964 96.8622 85.2041 95.2588 85.4036 92.8039C85.7576 88.4816 89.6368 84.498 96.9415 80.9625C97.0305 80.9145 97.1283 80.8849 97.229 80.8757C97.3298 80.8665 97.4314 80.8777 97.5277 80.9089C97.6239 80.94 97.7129 80.9903 97.7891 81.0568C97.8654 81.1232 97.9273 81.2044 97.9712 81.2955C98.0151 81.3865 98.04 81.4855 98.0445 81.5865C98.0489 81.6874 98.0329 81.7882 97.9972 81.8828C97.9616 81.9774 97.907 82.0637 97.837 82.1366C97.7669 82.2096 97.6828 82.2675 97.5896 82.307C90.7985 85.5935 87.2036 89.1638 86.8944 92.9234C86.7349 94.9152 87.5226 96.1601 88.4301 97.6241C89.3376 99.088 90.3747 100.761 90.27 103.236C90.0955 107.374 86.8894 109.924 83.7881 112.388C80.9609 114.644 78.3033 116.77 78.3033 119.858C78.3033 125.694 81.5343 132.396 86.9542 137.784C92.3742 143.172 99.0556 146.369 104.864 146.369C105.063 146.369 105.253 146.447 105.393 146.588C105.534 146.728 105.612 146.918 105.612 147.116C105.612 147.314 105.534 147.504 105.393 147.644C105.253 147.784 105.063 147.863 104.864 147.863H104.854Z" fill="black"/>
        <path d="M101.297 86.0961C100.282 86.3262 99.2222 86.2508 98.2507 85.8793C97.2791 85.5078 96.4397 84.857 95.8386 84.0092C95.2374 83.1613 94.9013 82.1545 94.873 81.116C94.8448 80.0774 95.1255 79.0539 95.6796 78.1746C96.2338 77.2954 97.0366 76.6 97.9864 76.1763C98.9363 75.7527 99.9906 75.6198 101.016 75.7945C102.042 75.9693 102.992 76.4437 103.748 77.1579C104.503 77.8721 105.03 78.7939 105.261 79.8069C105.415 80.4799 105.434 81.1765 105.318 81.857C105.202 82.5376 104.953 83.1886 104.585 83.7728C104.217 84.357 103.737 84.8629 103.173 85.2616C102.608 85.6602 101.971 85.9438 101.297 86.0961Z" fill="#A68242"/>
        <path d="M107.143 86.2408C106.021 86.4948 104.45 83.7909 103.652 80.1956C102.854 76.6004 103.074 73.4882 104.196 73.2243C105.318 72.9604 106.888 75.6742 107.686 79.2645C108.484 82.8547 108.264 85.9619 107.143 86.2408Z" fill="#A68242"/>
        <path d="M99.7576 81.58L99.5331 80.5841C99.1751 78.9924 99.4624 77.3239 100.332 75.943C101.202 74.5622 102.584 73.5812 104.175 73.2144L107.142 86.2209C105.547 86.5784 103.875 86.291 102.491 85.4214C101.108 84.5518 100.125 83.1708 99.7576 81.58Z" fill="#DDB061"/>
        <path d="M106.839 84.8911C105.946 85.0903 104.7 82.9392 104.047 80.0809C103.394 77.2227 103.588 74.7478 104.48 74.5437C105.373 74.3395 106.624 76.4907 107.273 79.3489C107.921 82.2072 107.731 84.687 106.839 84.8911Z" fill="#A68242"/>
        <path d="M105.391 78.2435C105.241 78.2784 105.027 77.9149 104.917 77.4269C104.807 76.9389 104.837 76.5157 104.992 76.4808C105.147 76.4459 105.356 76.8144 105.491 77.3024C105.625 77.7904 105.545 78.2137 105.391 78.2435Z" fill="white"/>
        <path d="M106.458 82.9194C106.309 82.9542 106.094 82.5857 105.959 82.1027C105.825 81.6197 105.88 81.1914 106.029 81.1566C106.179 81.1217 106.398 81.4902 106.528 81.9732C106.658 82.4562 106.613 82.8845 106.458 82.9194Z" fill="white"/>
        <path d="M172.683 145.572C172.492 145.571 172.308 145.497 172.169 145.366C172.03 145.235 171.946 145.055 171.935 144.865C171.929 144.767 171.942 144.669 171.975 144.576C172.007 144.483 172.057 144.398 172.122 144.325C172.188 144.252 172.267 144.192 172.355 144.15C172.444 144.107 172.54 144.083 172.638 144.078C209.186 141.987 215.384 120.355 216.416 113.773C217.857 104.555 214.581 95.642 208.937 93.4809C207.212 92.8186 205.706 93.6502 203.951 94.6212C202.31 95.5275 200.62 96.4636 198.621 96.1151C194.562 95.3881 191.491 90.1396 189.242 80.0561C189.199 79.8626 189.235 79.66 189.341 79.4928C189.448 79.3257 189.617 79.2076 189.81 79.1647C190.004 79.1218 190.207 79.1575 190.374 79.2639C190.542 79.3704 190.66 79.5389 190.703 79.7324C192.777 89.0242 195.529 94.0436 198.885 94.6411C200.381 94.905 201.747 94.1432 203.223 93.3166C205.033 92.3207 207.082 91.1754 209.466 92.0916C215.823 94.5366 219.438 103.958 217.862 114.002C216.79 120.858 210.383 143.411 172.693 145.562L172.683 145.572Z" fill="black"/>
        <path d="M193.881 78.1189C193.367 79.3651 192.414 80.3801 191.201 80.972C189.989 81.5639 188.601 81.6916 187.301 81.3311C186.001 80.9706 184.877 80.1467 184.144 79.0153C183.411 77.8839 183.118 76.5234 183.321 75.191C183.385 74.7777 192.545 71.9094 193.118 72.6414C193.717 73.4064 194.103 74.3159 194.237 75.2777C194.371 76.2396 194.248 77.2197 193.881 78.1189Z" fill="#A68242"/>
        <path d="M189.658 67.647C189.84 67.5982 190.034 67.6231 190.197 67.7164C190.361 67.8097 190.48 67.9637 190.531 68.145L191.967 73.4582C192.014 73.6397 191.989 73.8326 191.895 73.9955C191.802 74.1584 191.649 74.2784 191.468 74.3296C191.287 74.377 191.094 74.3513 190.932 74.2581C190.77 74.165 190.651 74.0118 190.6 73.8316L189.164 68.5184C189.117 68.3376 189.141 68.1453 189.234 67.9825C189.326 67.8197 189.478 67.6993 189.658 67.647Z" fill="black"/>
        <path d="M183.952 69.1856C184.134 69.1367 184.328 69.1617 184.491 69.255C184.654 69.3482 184.774 69.5023 184.825 69.6836L186.261 74.9967C186.308 75.1776 186.282 75.3698 186.189 75.532C186.096 75.6941 185.942 75.813 185.762 75.8632C185.672 75.888 185.578 75.8949 185.485 75.8833C185.392 75.8717 185.303 75.8419 185.222 75.7956C185.141 75.7493 185.07 75.6875 185.012 75.6136C184.955 75.5397 184.914 75.4553 184.889 75.3652L183.458 70.052C183.409 69.8718 183.434 69.6795 183.526 69.5172C183.619 69.3549 183.772 69.2356 183.952 69.1856Z" fill="black"/>
        <path d="M191.568 76.4407L186.652 77.7155C185.551 77.9976 184.383 77.8333 183.403 77.2587C182.423 76.684 181.711 75.7455 181.421 74.6481C181.35 74.3721 181.39 74.0791 181.534 73.8329C181.678 73.5867 181.913 73.4072 182.189 73.3335L193.323 70.4404C193.6 70.3692 193.894 70.4103 194.141 70.555C194.388 70.6996 194.567 70.9359 194.639 71.2122C194.922 72.3121 194.758 73.479 194.182 74.4584C193.607 75.4379 192.667 76.1504 191.568 76.4407Z" fill="#DDB061"/>
        <path d="M110.466 115.416H166.67C170.427 115.416 174.03 116.906 176.686 119.559C179.343 122.212 180.835 125.81 180.835 129.562V254.648H96.3008V129.562C96.3008 125.81 97.7932 122.212 100.45 119.559C103.106 116.906 106.709 115.416 110.466 115.416Z" fill="white"/>
        <path d="M180.835 251.701C180.438 251.701 180.058 251.543 179.777 251.263C179.497 250.983 179.339 250.603 179.339 250.207V129.563C179.335 126.208 177.999 122.992 175.624 120.62C173.249 118.248 170.029 116.914 166.67 116.91H110.466C107.107 116.914 103.887 118.248 101.512 120.62C99.1364 122.992 97.8003 126.208 97.7964 129.563V244.938C97.7964 245.335 97.6388 245.715 97.3582 245.995C97.0777 246.275 96.6972 246.432 96.3005 246.432C95.9038 246.432 95.5233 246.275 95.2428 245.995C94.9623 245.715 94.8047 245.335 94.8047 244.938V129.563C94.8086 125.416 96.4599 121.44 99.3962 118.507C102.332 115.575 106.314 113.926 110.466 113.922H166.67C170.822 113.926 174.803 115.575 177.74 118.507C180.676 121.44 182.327 125.416 182.331 129.563V250.207C182.331 250.603 182.173 250.983 181.893 251.263C181.612 251.543 181.232 251.701 180.835 251.701Z" fill="#ECEDF0"/>
        <path d="M110.982 126.934C110.983 127.482 110.821 128.018 110.517 128.474C110.213 128.93 109.78 129.285 109.273 129.495C108.766 129.706 108.208 129.761 107.67 129.654C107.132 129.548 106.637 129.284 106.249 128.896C105.861 128.509 105.597 128.015 105.491 127.477C105.384 126.94 105.439 126.383 105.649 125.877C105.86 125.371 106.216 124.938 106.673 124.634C107.129 124.331 107.666 124.169 108.215 124.17C108.949 124.17 109.653 124.461 110.172 124.979C110.691 125.498 110.982 126.201 110.982 126.934Z" fill="#ECEDF0"/>
        <path d="M106.393 174.737H211.291C211.517 174.737 211.742 174.693 211.951 174.606C212.16 174.519 212.349 174.392 212.509 174.232C212.669 174.072 212.796 173.882 212.882 173.673C212.968 173.464 213.012 173.24 213.011 173.014V153.918C213.013 153.692 212.969 153.468 212.883 153.259C212.797 153.05 212.67 152.86 212.51 152.7C212.35 152.54 212.16 152.414 211.951 152.328C211.742 152.242 211.517 152.198 211.291 152.2H106.393C106.167 152.199 105.943 152.243 105.733 152.329C105.524 152.415 105.334 152.542 105.174 152.701C105.013 152.861 104.886 153.05 104.799 153.259C104.713 153.468 104.668 153.692 104.668 153.918V173.014C104.669 173.471 104.851 173.908 105.175 174.231C105.498 174.554 105.936 174.736 106.393 174.737Z" fill="white"/>
        <path d="M195.338 170.365H207.304C207.569 170.365 207.823 170.26 208.01 170.073C208.197 169.887 208.302 169.633 208.302 169.369V157.448C208.303 157.259 208.248 157.073 208.142 156.915C208.052 156.779 207.93 156.667 207.787 156.589C207.643 156.511 207.483 156.469 207.319 156.467H195.353C195.088 156.467 194.835 156.572 194.648 156.759C194.461 156.946 194.355 157.199 194.355 157.463V169.414C194.355 169.678 194.461 169.932 194.648 170.118C194.835 170.305 195.088 170.41 195.353 170.41L195.338 170.365Z" fill="#D9DADF"/>
        <path d="M118.548 159.609H185.482C185.688 159.61 185.893 159.57 186.084 159.491C186.275 159.413 186.448 159.297 186.594 159.151C186.741 159.006 186.858 158.834 186.938 158.643C187.018 158.452 187.058 158.247 187.058 158.041C187.058 157.623 186.892 157.223 186.596 156.928C186.301 156.633 185.9 156.467 185.482 156.467H118.548C118.342 156.467 118.137 156.507 117.947 156.585C117.756 156.664 117.582 156.78 117.436 156.925C117.14 157.221 116.974 157.622 116.973 158.041C116.973 158.247 117.013 158.452 117.093 158.642C117.172 158.833 117.288 159.006 117.434 159.152C117.581 159.297 117.755 159.413 117.946 159.491C118.137 159.57 118.342 159.61 118.548 159.609Z" fill="#D9DADF"/>
        <path d="M118.548 165.47H185.482C185.724 165.47 185.963 165.414 186.18 165.307C186.397 165.2 186.586 165.045 186.733 164.853C186.945 164.579 187.059 164.243 187.058 163.897C187.058 163.479 186.892 163.079 186.596 162.784C186.301 162.489 185.9 162.323 185.482 162.323H118.548C118.13 162.323 117.73 162.489 117.434 162.784C117.139 163.079 116.973 163.479 116.973 163.897C116.975 164.313 117.142 164.712 117.437 165.007C117.732 165.301 118.131 165.468 118.548 165.47Z" fill="#D9DADF"/>
        <path d="M167.371 206.9H62.4975C62.0413 206.9 61.6038 206.719 61.2812 206.397C60.9586 206.074 60.7774 205.637 60.7774 205.182V186.085C60.7767 185.859 60.8207 185.635 60.9069 185.426C60.993 185.217 61.1196 185.027 61.2794 184.867C61.4392 184.707 61.6291 184.58 61.8381 184.494C62.0471 184.407 62.2712 184.362 62.4975 184.362H167.371C167.597 184.362 167.822 184.406 168.032 184.492C168.241 184.578 168.432 184.705 168.592 184.865C168.752 185.026 168.879 185.216 168.966 185.425C169.052 185.634 169.096 185.859 169.096 186.085V205.182C169.094 205.638 168.912 206.075 168.589 206.397C168.265 206.719 167.827 206.9 167.371 206.9Z" fill="white"/>
        <path d="M78.4405 202.533H66.4738C66.2093 202.533 65.9556 202.428 65.7686 202.241C65.5816 202.054 65.4766 201.801 65.4766 201.537V189.586C65.4766 189.322 65.5816 189.068 65.7686 188.882C65.9556 188.695 66.2093 188.59 66.4738 188.59H78.4405C78.6724 188.592 78.8963 188.675 79.0737 188.824C79.1825 188.917 79.27 189.032 79.3302 189.162C79.3904 189.292 79.422 189.433 79.4227 189.576V201.527C79.4227 201.791 79.3176 202.044 79.1306 202.231C78.9436 202.418 78.69 202.523 78.4255 202.523L78.4405 202.533Z" fill="#D9DADF"/>
        <path d="M155.224 191.777H88.2905C88.0838 191.777 87.8791 191.736 87.6883 191.656C87.4975 191.577 87.3242 191.46 87.1785 191.314C87.031 191.169 86.914 190.996 86.8343 190.805C86.7547 190.615 86.7141 190.41 86.7149 190.203C86.7162 189.787 86.8826 189.387 87.1778 189.092C87.473 188.797 87.873 188.631 88.2905 188.63H155.224C155.431 188.63 155.635 188.671 155.826 188.751C156.017 188.83 156.19 188.947 156.336 189.093C156.484 189.238 156.601 189.411 156.68 189.601C156.76 189.792 156.801 189.997 156.8 190.203C156.8 190.621 156.634 191.021 156.338 191.316C156.043 191.611 155.642 191.777 155.224 191.777Z" fill="#D9DADF"/>
        <path d="M133.834 197.633H88.2905C88.0832 197.634 87.8777 197.594 87.6859 197.516C87.4942 197.437 87.32 197.321 87.1734 197.175C87.0268 197.029 86.9108 196.855 86.8321 196.663C86.7534 196.472 86.7136 196.266 86.7149 196.059C86.7149 195.853 86.7557 195.649 86.8349 195.458C86.9141 195.267 87.0303 195.094 87.1767 194.948C87.323 194.803 87.4967 194.687 87.6879 194.609C87.879 194.53 88.0838 194.49 88.2905 194.491H133.834C134.041 194.489 134.246 194.529 134.437 194.607C134.628 194.686 134.802 194.801 134.949 194.947C135.096 195.093 135.212 195.266 135.291 195.457C135.37 195.648 135.41 195.853 135.409 196.059C135.411 196.266 135.371 196.472 135.292 196.663C135.213 196.855 135.097 197.029 134.951 197.175C134.804 197.321 134.63 197.437 134.438 197.516C134.246 197.594 134.041 197.634 133.834 197.633Z" fill="#D9DADF"/>
        <path d="M208.564 252.856C208.564 253.737 203.723 254.454 197.745 254.454C191.766 254.454 186.93 253.737 186.93 252.856C186.93 251.974 191.771 251.252 197.745 251.252C203.718 251.252 208.564 251.969 208.564 252.856Z" fill="#ECEDF0"/>
        <path d="M183.096 204.619C182.722 206.511 184.991 206.89 185.37 209.534C185.749 212.178 184.612 212.94 184.991 214.454C185.37 215.968 187.643 216.341 188.022 220.121C188.401 223.9 186.886 223.527 187.265 225.792C187.644 228.058 189.912 228.063 190.291 229.955C190.67 231.847 190.67 234.491 191.428 236.757C192.186 239.023 194.455 242.429 195.591 242.429C196.728 242.429 199.755 236.005 198.997 234.113C198.239 232.221 197.107 231.842 197.107 230.334C197.107 228.825 198.603 225.04 198.244 222.366C197.885 219.692 194.455 218.587 194.076 216.695C193.697 214.802 194.834 209.888 192.186 207.622C189.538 205.356 183.475 202.732 183.096 204.619Z" fill="#CEA04D"/>
        <path d="M195.418 241.781C195.367 241.781 195.319 241.761 195.284 241.726C195.248 241.69 195.228 241.642 195.228 241.592C195.228 241.542 195.198 236.612 193.732 235.193C192.266 233.774 191.434 229.263 191.025 220.698C190.656 212.92 185.072 206.511 185.017 206.446C184.999 206.429 184.985 206.409 184.975 206.386C184.966 206.363 184.961 206.339 184.961 206.315C184.961 206.29 184.966 206.266 184.975 206.243C184.985 206.22 184.999 206.2 185.017 206.183C185.034 206.165 185.055 206.151 185.078 206.141C185.101 206.131 185.126 206.126 185.151 206.126C185.176 206.126 185.201 206.131 185.224 206.141C185.247 206.151 185.268 206.165 185.286 206.183C185.341 206.247 191.01 212.751 191.389 220.668C191.788 229.014 192.611 233.54 193.982 234.909C195.537 236.458 195.567 241.383 195.567 241.577C195.567 241.627 195.547 241.675 195.512 241.711C195.476 241.746 195.428 241.766 195.378 241.766L195.418 241.781Z" fill="white"/>
        <path d="M217.775 210.341C219.111 211.68 214.743 212.233 214.364 214.882C213.985 217.531 213.985 218.661 212.475 220.175C210.964 221.689 208.685 222.062 209.064 224.333C209.443 226.604 210.201 228.869 209.064 230.005C207.927 231.14 205.28 231.14 204.522 233.027C203.764 234.915 204.143 237.19 202.627 239.077C201.111 240.965 198.842 244.749 196.953 243.992C195.063 243.235 196.195 234.531 196.953 233.037C197.711 231.543 198.449 230.393 198.449 229.258C198.449 228.122 198.07 226.235 198.828 224.343C199.585 222.451 203.749 221.694 204.128 220.564C204.507 219.433 204.886 213.378 207.159 211.864C209.433 210.35 215.481 208.075 217.775 210.341Z" fill="#C69C52"/>
        <path d="M197.514 243.345C197.483 243.352 197.451 243.352 197.42 243.345C197.377 243.319 197.346 243.278 197.334 243.229C197.322 243.181 197.329 243.129 197.355 243.086C197.355 243.056 198.886 240.527 199.205 239.247C199.289 238.918 199.389 238.415 199.504 237.838C199.923 235.741 200.556 232.569 201.528 231.598C202.939 230.184 205.198 225.867 206.779 220.335C208.728 213.523 215.17 211.531 215.255 211.511C215.279 211.503 215.303 211.5 215.328 211.503C215.353 211.505 215.377 211.512 215.399 211.524C215.421 211.535 215.44 211.551 215.455 211.57C215.471 211.59 215.483 211.612 215.489 211.635C215.504 211.684 215.499 211.736 215.475 211.78C215.452 211.825 215.412 211.858 215.365 211.874C215.3 211.874 209.052 213.831 207.163 220.439C205.562 226.031 203.263 230.398 201.812 231.862C200.925 232.754 200.277 235.985 199.893 237.913C199.778 238.495 199.678 238.998 199.594 239.337C199.26 240.671 197.764 243.171 197.699 243.28C197.676 243.306 197.647 243.326 197.615 243.337C197.583 243.348 197.548 243.351 197.514 243.345Z" fill="white"/>
        <path d="M197.031 214.673C192.489 215.051 194.005 228.66 194.005 228.66C195.141 240.382 196.652 245.675 197.789 246.054C198.926 246.432 201.2 229.417 201.2 225.259C201.2 225.259 201.578 214.294 197.031 214.673Z" fill="#DDB061"/>
        <path d="M197.599 244.162C197.575 244.159 197.55 244.152 197.529 244.14C197.507 244.128 197.488 244.112 197.472 244.092C197.457 244.073 197.446 244.05 197.439 244.026C197.433 244.002 197.431 243.977 197.435 243.953C198.931 231.638 197.071 216.172 197.056 216.017C197.05 215.992 197.049 215.965 197.054 215.939C197.059 215.912 197.07 215.888 197.085 215.866C197.1 215.844 197.12 215.826 197.143 215.812C197.166 215.798 197.191 215.79 197.218 215.787C197.244 215.783 197.271 215.786 197.296 215.794C197.322 215.802 197.345 215.815 197.365 215.832C197.385 215.85 197.401 215.871 197.413 215.896C197.424 215.92 197.429 215.946 197.43 215.973C197.43 216.127 199.309 231.638 197.809 243.997C197.802 244.047 197.777 244.092 197.738 244.123C197.699 244.153 197.649 244.167 197.599 244.162Z" fill="white"/>
        <path d="M203.245 252.771H191.727C191.558 252.786 191.388 252.739 191.25 252.639C191.112 252.54 191.014 252.394 190.974 252.229L189.299 240.278C189.284 240.153 189.296 240.027 189.334 239.907C189.371 239.787 189.434 239.676 189.517 239.582C189.6 239.488 189.703 239.413 189.817 239.361C189.932 239.309 190.056 239.282 190.182 239.282H204.811C204.937 239.282 205.062 239.308 205.177 239.36C205.292 239.411 205.395 239.486 205.479 239.58C205.563 239.675 205.626 239.785 205.663 239.906C205.701 240.026 205.713 240.153 205.698 240.278L204.023 252.229C203.981 252.397 203.879 252.545 203.736 252.645C203.593 252.745 203.419 252.79 203.245 252.771Z" fill="#D9DADF"/>
    </g>
    <defs>
        <linearGradient id="paint0_linear_1413_120694" x1="143.878" y1="47.9406" x2="142.825" y2="295.546" gradientUnits="userSpaceOnUse">
            <stop stop-color="#FAFAFA"/>
            <stop offset="1" stop-color="#F9F9FA" stop-opacity="0"/>
        </linearGradient>
        <clipPath id="clip0_1413_120694">
            <rect width="273" height="275" fill="white"/>
        </clipPath>
    </defs>
</svg>
