<svg width="87" height="87" viewBox="0 0 87 87" fill="none" xmlns="http://www.w3.org/2000/svg">
<path d="M13.5938 36.0234V10.1953C13.5938 6.44157 16.6369 3.39844 20.3906 3.39844H10.1953C6.44157 3.39844 3.39844 6.44157 3.39844 10.1953V36.0234C3.39844 39.7772 6.44157 42.8203 10.1953 42.8203H20.3906C16.6369 42.8203 13.5938 39.7772 13.5938 36.0234Z" fill="#FFEEC2"/>
<path d="M76.8052 40.7812C75.0161 40.7812 73.2547 40.3102 71.7116 39.419L61.5121 33.529C59.8868 32.5903 59.3299 30.5119 60.2686 28.8865C61.2071 27.2611 63.2857 26.7044 64.911 27.6431L75.1107 33.5332C75.6293 33.8325 76.1994 33.9844 76.8052 33.9844C78.6791 33.9844 80.2036 32.4598 80.2036 30.5859V16.9922C80.2036 15.1183 78.6791 13.5938 76.8052 13.5938C76.1994 13.5938 75.6293 13.7457 75.1107 14.0451L64.911 19.9352C63.2857 20.8737 61.2072 20.3172 60.2686 18.6917C59.3299 17.0664 59.8866 14.988 61.5121 14.0493L71.7118 8.15931C73.2549 7.2679 75.0163 6.79688 76.8052 6.79688C82.4269 6.79688 87.0005 11.3705 87.0005 16.9922V30.5859C87.0005 36.2076 82.4269 40.7812 76.8052 40.7812Z" fill="#A68242"/>
<path d="M16.3125 80.2031H10.1953C8.32141 80.2031 6.79688 78.6786 6.79688 76.8047V56.4141C6.79688 54.5371 5.27539 53.0156 3.39844 53.0156C1.52148 53.0156 0 54.5371 0 56.4141V76.8047C0 82.4264 4.57362 87 10.1953 87H16.3125C18.1895 87 19.7109 85.4785 19.7109 83.6016C19.7109 81.7246 18.1895 80.2031 16.3125 80.2031Z" fill="black"/>
<path d="M29.9062 53.0156C28.0293 53.0156 26.5078 54.5371 26.5078 56.4141V83.6016C26.5078 85.4785 28.0293 87 29.9062 87C31.7832 87 33.3047 85.4785 33.3047 83.6016V56.4141C33.3047 54.5371 31.7832 53.0156 29.9062 53.0156Z" fill="black"/>
<path d="M61.6862 53.2319C59.9289 52.573 57.9699 53.4633 57.3109 55.2207L50.2977 73.9228L43.2845 55.2209C42.6256 53.4633 40.6666 52.5731 38.9092 53.2321C37.1519 53.891 36.2613 55.8501 36.9205 57.6074L47.1158 84.7949C47.6131 86.1213 48.8811 87 50.2977 87C51.7144 87 52.9823 86.1213 53.4799 84.7947L63.6752 57.6072C64.3341 55.8499 63.4437 53.891 61.6862 53.2319Z" fill="black"/>
<path d="M83.6016 73.4062C85.4785 73.4062 87 71.8848 87 70.0078C87 68.1309 85.4785 66.6094 83.6016 66.6094H74.0859V63.2109C74.0859 61.337 75.6105 59.8125 77.4844 59.8125H83.6016C85.4785 59.8125 87 58.291 87 56.4141C87 54.5371 85.4785 53.0156 83.6016 53.0156H77.4844C71.8627 53.0156 67.2891 57.5892 67.2891 63.2109V76.8047C67.2891 82.4264 71.8627 87 77.4844 87H83.6016C85.4785 87 87 85.4785 87 83.6016C87 81.7246 85.4785 80.2031 83.6016 80.2031H77.4844C75.6105 80.2031 74.0859 78.6786 74.0859 76.8047V73.4062H83.6016Z" fill="black"/>
<path d="M10.1953 46.2188H42.8203C48.442 46.2188 53.0156 41.6451 53.0156 36.0234V10.1953C53.0156 4.57362 48.442 0 42.8203 0H10.1953C4.57362 0 0 4.57362 0 10.1953V36.0234C0 41.6451 4.57362 46.2188 10.1953 46.2188ZM6.79688 10.1953C6.79688 8.32141 8.32141 6.79688 10.1953 6.79688H42.8203C44.6942 6.79688 46.2188 8.32141 46.2188 10.1953V36.0234C46.2188 37.8973 44.6942 39.4219 42.8203 39.4219H10.1953C8.32141 39.4219 6.79688 37.8973 6.79688 36.0234V10.1953Z" fill="#A68242"/>
<path d="M16.9922 20.3906C18.8691 20.3906 20.3906 18.8691 20.3906 16.9922C20.3906 15.1153 18.8691 13.5938 16.9922 13.5938C15.1153 13.5938 13.5938 15.1153 13.5938 16.9922C13.5938 18.8691 15.1153 20.3906 16.9922 20.3906Z" fill="#A68242"/>
</svg>
