<svg width="235" height="150" viewBox="0 0 235 150" fill="none" xmlns="http://www.w3.org/2000/svg">
<g clip-path="url(#clip0_317_79862)">
<path d="M0 150H31.1272V141.771H8.83898V123.538H28.3913V115.309H8.83898V102.346H31.1272V94.1166H0V150Z" fill="#231F20"/>
<path d="M203.612 150H234.733V141.771H212.451V123.538H232.004V115.309H212.451V102.346H234.733V94.1166H203.612V150Z" fill="#231F20"/>
<path d="M65.253 94.1166H56.4141V150H87.4097V141.771H65.253V94.1166Z" fill="#231F20"/>
<path d="M121.72 94.1166H112.881V150H121.72V94.1166Z" fill="#231F20"/>
<path d="M167.355 116.16L163.613 114.706C159.214 112.998 156.977 110.811 156.977 108.199C156.976 107.293 157.198 106.401 157.626 105.601C158.054 104.802 158.674 104.12 159.431 103.616C160.925 102.435 162.784 101.806 164.692 101.835C167.98 101.835 170.446 103.269 172.209 106.235L172.728 107.112H181.022C180.66 105.369 180.037 103.689 179.174 102.13C177.767 99.5728 175.69 97.4432 173.165 95.9675C170.639 94.4919 167.758 93.7256 164.83 93.75C160.733 93.6467 156.728 94.9635 153.498 97.4752C151.875 98.7495 150.571 100.381 149.688 102.242C148.804 104.102 148.367 106.141 148.408 108.199C148.408 114.235 152.446 118.981 160.397 122.314L164.001 123.833C166.134 124.637 168.131 125.763 169.92 127.171C170.726 127.864 171.368 128.724 171.801 129.692C172.234 130.659 172.448 131.71 172.426 132.769C172.489 135.173 171.601 137.505 169.953 139.263C169.183 140.121 168.234 140.801 167.171 141.253C166.108 141.706 164.959 141.92 163.804 141.882C162.6 141.916 161.402 141.712 160.278 141.28C159.155 140.849 158.129 140.199 157.26 139.368C155.498 137.692 154.833 135.656 154.702 133.044L154.669 131.27L145.962 131.302C145.87 132.573 145.934 133.851 146.152 135.106C146.521 137.528 148.559 142.72 151.71 145.581C154.842 148.473 158.98 150.043 163.252 149.961C165.576 150.021 167.889 149.621 170.057 148.784C172.225 147.947 174.204 146.689 175.879 145.083C177.548 143.491 178.865 141.569 179.744 139.441C180.623 137.312 181.045 135.024 180.982 132.723C180.982 128.428 179.667 124.834 177.036 122.026C174.892 119.806 171.637 117.816 167.355 116.16Z" fill="#231F20"/>
<path d="M133.834 65.6971C140.604 65.6951 147.209 63.6213 152.754 59.7568C158.3 55.8922 162.518 50.4238 164.836 44.0927H157.806C154.952 50.093 149.934 54.8047 143.751 57.2912C137.567 59.7778 130.67 59.8572 124.43 57.5136C122.654 59.2051 120.698 60.698 118.596 61.9654C123.298 64.4177 128.526 65.6982 133.834 65.6971Z" fill="#A78242"/>
<path d="M100.886 5.75734e-05C92.1341 0.00179366 83.7418 3.46371 77.5542 9.62442C71.3667 15.7851 67.8906 24.1401 67.8906 32.8518C67.896 34.1956 67.9816 35.5379 68.1471 36.8716H99.853C99.6904 35.5378 99.6092 34.1954 99.6097 32.8518C99.6097 31.8043 99.682 30.7241 99.7872 29.6308H74.579C75.0687 25.6652 76.4566 21.8621 78.6379 18.5082C80.8192 15.1543 83.7371 12.3373 87.1714 10.2695C90.6057 8.20176 94.4669 6.93726 98.4637 6.57138C102.46 6.20549 106.488 6.74778 110.244 8.15735L110.428 8.22935C112.822 9.15428 115.068 10.4201 117.097 11.9872H117.136L118.3 12.8841C123.015 16.875 126.133 22.4181 127.087 28.5048H133.663C132.659 20.58 128.766 13.2985 122.723 8.04347C116.68 2.78844 108.909 -0.0739586 100.886 5.75734e-05Z" fill="#A78242"/>
<path d="M100.886 59.2353C95.8612 59.2335 90.9407 57.8112 86.6968 55.1339C82.4529 52.4565 79.0603 48.6343 76.9137 44.1122H69.8965C72.2158 50.4428 76.4339 55.9107 81.9793 59.7752C87.5248 63.6396 94.1295 65.7137 100.899 65.7166C117.478 65.7166 131.085 53.9324 133.427 38.0957H126.85C124.561 50.3447 113.888 59.2353 100.886 59.2353Z" fill="#A78242"/>
<path d="M133.834 5.32874e-05C128.528 -0.00450129 123.3 1.26907 118.596 3.71207C120.699 4.98706 122.659 6.48163 124.443 8.17043C128.199 6.75476 132.229 6.20732 136.229 6.56948C140.228 6.93164 144.093 8.19393 147.531 10.261C150.969 12.328 153.889 15.1458 156.073 18.5014C158.256 21.8569 159.645 25.6626 160.134 29.6308H108.777V29.7814C108.485 32.0769 108.518 34.402 108.876 36.6882C108.872 36.7493 108.872 36.8105 108.876 36.8715H166.586C167.169 32.2524 166.756 27.5627 165.377 23.1144C163.997 18.6661 161.682 14.5613 158.585 11.0731C155.487 7.58492 151.68 4.79332 147.414 2.88405C143.149 0.974789 138.524 -0.00833962 133.847 5.32874e-05H133.834Z" fill="#A78242"/>
<path d="M107.85 38.0761C107.765 37.6833 107.692 37.2774 107.626 36.8715C107.425 35.5409 107.324 34.1973 107.324 32.8518C107.325 31.775 107.393 30.6992 107.528 29.6308C107.58 29.2249 107.633 28.8255 107.705 28.4262C108.728 22.426 111.807 16.9639 116.419 12.9692C114.624 11.5829 112.651 10.4403 110.553 9.57141C107.476 12.6256 105.034 16.2539 103.367 20.2487C101.7 24.2434 100.841 28.5262 100.839 32.8518C100.839 34.6057 100.978 36.3569 101.254 38.0892C102.354 44.9248 105.603 51.2371 110.533 56.1191C112.623 55.2464 114.589 54.104 116.38 52.7213C111.995 48.907 108.997 43.7592 107.85 38.0761Z" fill="#A78242"/>
</g>
<defs>
<clipPath id="clip0_317_79862">
<rect width="234.733" height="150" fill="white"/>
</clipPath>
</defs>
</svg>
