<svg width="28" height="28" viewBox="0 0 28 28" fill="none" xmlns="http://www.w3.org/2000/svg">
<path d="M3.95502 14.3817H3.96762C4.38769 14.3819 4.78565 14.1935 5.05169 13.8684L6.29116 12.3527V15.0267V15.0332C6.27016 15.5778 6.03169 18.2 3.50002 18.2C3.24229 18.2 3.03336 18.4089 3.03336 18.6667C3.03336 18.9244 3.24229 19.1333 3.50002 19.1333C6.02002 19.1333 6.26829 21.7607 6.29209 22.3015V22.3067V26.6C6.29209 27.3732 6.91889 28 7.69209 28H25.6578C26.5504 28.004 27.347 27.441 27.6413 26.5984C27.9356 25.7557 27.6626 24.8192 26.9617 24.2667C27.4642 23.8737 27.7579 23.2713 27.7579 22.6333C27.7579 21.9954 27.4642 21.393 26.9617 21C27.6626 20.4474 27.9356 19.5109 27.6413 18.6683C27.347 17.8257 26.5504 17.2627 25.6578 17.2667H21.2245V12.3541L22.4672 13.8726C22.7337 14.1959 23.1309 14.3829 23.5499 14.3822H23.5625C23.9823 14.3799 24.3785 14.188 24.6405 13.86L27.2072 10.6549C27.6051 10.1598 27.6199 9.45882 27.2431 8.9474L23.2666 3.52193C22.7393 2.80663 22.0505 2.22604 21.2562 1.82747L18.2882 0.341133C18.2476 0.321067 18.2052 0.3066 18.1636 0.2884H18.159C17.7404 0.100559 17.2872 0.00232306 16.8285 0H10.6872C10.2296 0.00203643 9.77743 0.0992994 9.35949 0.2856L9.35109 0.289333C9.30816 0.308 9.26522 0.322933 9.22276 0.343467L6.25989 1.82747C5.46525 2.22606 4.77619 2.80702 4.24902 3.52287L0.273957 8.94367C-0.103618 9.45476 -0.0896308 10.156 0.308024 10.6517L2.87469 13.8567C3.13668 14.1864 3.53398 14.3794 3.95502 14.3817V14.3817ZM5.35222 18.6667C5.97749 18.2845 6.46977 17.7189 6.76202 17.0469C7.05445 17.7189 7.54689 18.2845 8.17229 18.6667C7.54689 19.0488 7.05445 19.6144 6.76202 20.2865C6.46977 19.6144 5.97749 19.0488 5.35222 18.6667ZM7.22449 26.6V25.6667H12.3816C12.3692 25.7439 12.3612 25.8218 12.3578 25.9C12.3576 26.3156 12.4814 26.7218 12.7134 27.0667H7.69116C7.43342 27.0667 7.22449 26.8577 7.22449 26.6V26.6ZM26.8245 25.9C26.8245 26.5443 26.3022 27.0667 25.6578 27.0667H14.4578C13.8135 27.0667 13.2912 26.5443 13.2912 25.9C13.2912 25.2557 13.8135 24.7333 14.4578 24.7333H25.6578C26.3022 24.7333 26.8245 25.2557 26.8245 25.9ZM26.8245 22.6333C26.8245 23.2777 26.3022 23.8 25.6578 23.8H14.4578C13.8135 23.8 13.2912 23.2777 13.2912 22.6333C13.2912 21.989 13.8135 21.4667 14.4578 21.4667H25.6578C26.3022 21.4667 26.8245 21.989 26.8245 22.6333ZM26.8245 19.3667C26.8245 20.011 26.3022 20.5333 25.6578 20.5333H14.4578C13.8135 20.5333 13.2912 20.011 13.2912 19.3667C13.2912 18.7223 13.8135 18.2 14.4578 18.2H25.6578C26.3022 18.2 26.8245 18.7223 26.8245 19.3667ZM26.4792 10.0683L23.9125 13.2748C23.8247 13.3838 23.6927 13.4477 23.5527 13.4489C23.4123 13.4463 23.2795 13.385 23.1864 13.2799L22.8205 12.8324L25.9523 8.7626L26.4918 9.49853C26.6175 9.66927 26.6123 9.90332 26.4792 10.0683ZM13.7578 4.2C15.9199 4.2 17.7684 3.00347 18.2784 1.37993L19.1217 1.80227C18.4212 3.75247 16.2312 5.13333 13.7578 5.13333C11.2845 5.13333 9.09442 3.75247 8.39396 1.80227L9.23769 1.37993C9.74729 3.00347 11.5958 4.2 13.7578 4.2V4.2ZM16.8285 0.933333C17.0262 0.934085 17.223 0.959959 17.4142 1.01033C17.0772 2.3002 15.5554 3.26667 13.7578 3.26667C11.9602 3.26667 10.4384 2.3002 10.1015 1.01033C10.2927 0.960033 10.4895 0.934161 10.6872 0.933333H16.8285ZM5.00129 4.0754C5.44049 3.4779 6.01492 2.99288 6.67756 2.66L7.55629 2.21993C8.42802 4.48 10.9368 6.06667 13.7578 6.06667C16.5788 6.06667 19.0876 4.48 19.9594 2.2218L20.8386 2.66233C21.5006 2.99444 22.0748 3.4783 22.5144 4.07447L25.3778 7.98L22.2138 12.0918L21.9478 11.7651C21.6986 11.4595 21.2842 11.3435 20.9125 11.4753C20.5408 11.6071 20.2921 11.9583 20.2912 12.3527V17.2667H14.4578C13.5653 17.2627 12.7686 17.8257 12.4743 18.6683C12.1801 19.5109 12.453 20.4474 13.154 21C12.6514 21.393 12.3577 21.9954 12.3577 22.6333C12.3577 23.2713 12.6514 23.8737 13.154 24.2667C12.9841 24.3987 12.8355 24.5561 12.7134 24.7333H7.22449V22.4215C7.22449 22.414 7.22869 22.4075 7.22869 22.4C7.22869 22.2665 7.26042 19.1333 10.0245 19.1333C10.2822 19.1333 10.4912 18.9244 10.4912 18.6667C10.4912 18.4089 10.2822 18.2 10.0245 18.2C7.27396 18.2 7.22916 15.0659 7.22869 14.9333C7.22869 14.9259 7.22496 14.9193 7.22449 14.9119V12.3527C7.22287 11.9594 6.97493 11.6094 6.60448 11.4773C6.23404 11.3453 5.82059 11.4597 5.57062 11.7633L5.30276 12.0899L2.13782 7.98L5.00129 4.0754ZM1.03649 10.0679C0.903408 9.90225 0.898996 9.66764 1.02576 9.49713L1.56429 8.7626L4.69562 12.8319L4.33069 13.2781C4.23643 13.3824 4.10392 13.444 3.96342 13.4489C3.82325 13.4482 3.69095 13.384 3.60362 13.2743L1.03649 10.0679Z" fill="black"/>
<path d="M8.62292 12.6C11.3735 12.6 11.4182 15.7341 11.4187 15.8667C11.4187 16.1244 11.6277 16.3333 11.8854 16.3333C12.1431 16.3333 12.352 16.1244 12.352 15.8667C12.352 15.7332 12.3838 12.6 15.1474 12.6C15.4051 12.6 15.614 12.3911 15.614 12.1333C15.614 11.8756 15.4051 11.6667 15.1474 11.6667C12.3968 11.6667 12.3525 8.53255 12.352 8.40002C12.352 8.14228 12.1431 7.93335 11.8854 7.93335C11.6277 7.93335 11.4187 8.14228 11.4187 8.40002C11.4187 8.53348 11.387 11.6667 8.62292 11.6667C8.36518 11.6667 8.15625 11.8756 8.15625 12.1333C8.15625 12.3911 8.36518 12.6 8.62292 12.6ZM11.8854 10.5135C12.1776 11.1856 12.6699 11.7512 13.2952 12.1333C12.6699 12.5155 12.1776 13.0811 11.8854 13.7531C11.593 13.0811 11.1005 12.5155 10.4751 12.1333C11.1005 11.7512 11.593 11.1856 11.8854 10.5135Z" fill="black"/>
</svg>
