<svg width="120" height="120" viewBox="0 0 120 120" fill="none" xmlns="http://www.w3.org/2000/svg">
<path d="M80.6653 0C58.9763 0 41.3309 17.6454 41.3309 39.3344C41.3309 49.5481 45.2448 58.8638 51.6503 65.8637L44.3896 73.1243L44.304 73.0388C43.2624 71.9972 41.8772 71.4232 40.4039 71.4232C38.9306 71.4232 37.5456 71.9969 36.5038 73.0388L2.16217 107.381C-0.720724 110.264 -0.720724 114.955 2.16217 117.838C3.60362 119.279 5.49719 120 7.39076 120C9.28434 120 11.1779 119.28 12.6194 117.838L46.961 83.4962C48.0028 82.4544 48.5766 81.0694 48.5766 79.5961C48.5766 78.1228 48.0028 76.7378 46.961 75.696L46.8754 75.6104L54.1361 68.3497C61.1359 74.7552 70.4519 78.6691 80.6653 78.6691C102.355 78.6691 120 61.0237 120 39.3344C120 17.6454 102.355 0 80.6653 0ZM10.1335 115.352C8.62127 116.864 6.16049 116.864 4.64826 115.352C3.13603 113.84 3.13603 111.379 4.64826 109.867L33.4943 81.0204L38.9796 86.5057L10.1335 115.352ZM44.4751 81.0101L41.4654 84.0198L35.9802 78.5346L38.9899 75.5249C39.3675 75.1473 39.8698 74.9391 40.4039 74.9391C40.9381 74.9391 41.4404 75.1473 41.8179 75.5249L44.4749 78.1821C44.6612 78.3673 44.8089 78.5877 44.9094 78.8304C45.01 79.0731 45.0613 79.3334 45.0606 79.5961C45.0614 79.8588 45.0101 80.1191 44.9096 80.3618C44.8091 80.6045 44.6614 80.8249 44.4751 81.0101ZM80.6653 75.1536C60.9147 75.1536 44.8466 59.0853 44.8466 39.3347C44.8466 19.584 60.9149 3.51573 80.6653 3.51573C100.416 3.51573 116.484 19.584 116.484 39.3344C116.484 59.0851 100.416 75.1536 80.6653 75.1536Z" fill="black"/>
<path d="M103.165 16.8349C91.851 5.52107 73.7968 4.3958 61.1702 14.2169C60.988 14.3586 60.8354 14.5348 60.7213 14.7354C60.6072 14.9361 60.5337 15.1573 60.5051 15.3863C60.4765 15.6154 60.4932 15.8479 60.5545 16.0704C60.6157 16.293 60.7202 16.5013 60.862 16.6835C61.0037 16.8657 61.1799 17.0183 61.3805 17.1324C61.5812 17.2465 61.8024 17.32 62.0314 17.3486C62.2605 17.3772 62.493 17.3604 62.7155 17.2992C62.9381 17.238 63.1464 17.1335 63.3286 16.9917C74.5593 8.25654 90.6163 9.25805 100.679 19.3208C110.742 29.3837 111.743 45.4408 103.008 56.6709C102.806 56.9306 102.681 57.2417 102.647 57.5689C102.613 57.8961 102.672 58.2263 102.816 58.5219C102.961 58.8175 103.185 59.0666 103.464 59.241C103.743 59.4153 104.065 59.5079 104.394 59.5081C104.662 59.5085 104.927 59.4476 105.167 59.3299C105.408 59.2122 105.619 59.041 105.783 58.8293C115.604 46.2027 114.479 28.149 103.165 16.8349ZM98.0021 61.6769C92.8832 65.6585 86.7626 67.6173 80.6628 67.617C73.3803 67.6168 66.1278 64.8241 60.652 59.348C50.5893 49.2853 49.588 33.2281 58.3229 21.9979C58.6048 21.6296 58.7297 21.1648 58.6704 20.7048C58.6111 20.2447 58.3724 19.8268 58.0064 19.542C57.6403 19.2572 57.1765 19.1287 56.716 19.1843C56.2555 19.24 55.8357 19.4754 55.5481 19.8392C45.7265 32.4663 46.852 50.52 58.1661 61.8339C64.3236 67.9916 72.4758 71.1311 80.6649 71.1309C87.5222 71.1306 94.406 68.9282 100.161 64.4519C100.343 64.3102 100.496 64.134 100.61 63.9333C100.724 63.7326 100.797 63.5114 100.826 63.2823C100.854 63.0533 100.838 62.8208 100.776 62.5982C100.715 62.3756 100.611 62.1673 100.469 61.9851C100.327 61.8029 100.151 61.6503 99.9503 61.5362C99.7497 61.4221 99.5285 61.3487 99.2994 61.3201C99.0703 61.2914 98.8379 61.3082 98.6153 61.3694C98.3927 61.4307 98.1843 61.5351 98.0021 61.6769Z" fill="black"/>
<path d="M66.2707 38.6986C66.6138 39.0419 67.0638 39.2135 67.5136 39.2135C67.9634 39.2135 68.4134 39.0419 68.7565 38.6986L71.2712 36.1839L73.7859 38.6986C74.129 39.0419 74.579 39.2135 75.0288 39.2135C75.4786 39.2135 75.9286 39.0419 76.2717 38.6986C76.6013 38.3689 76.7865 37.9218 76.7865 37.4556C76.7865 36.9895 76.6013 36.5424 76.2717 36.2127L73.7571 33.698L76.2717 31.1833C76.9582 30.4968 76.9582 29.384 76.2717 28.6975C75.5852 28.011 74.4721 28.011 73.7859 28.6975L71.2712 31.2122L68.7565 28.6975C68.4269 28.3679 67.9798 28.1827 67.5136 28.1827C67.0474 28.1827 66.6003 28.3679 66.2707 28.6975C65.941 29.0272 65.7559 29.4742 65.7559 29.9404C65.7559 30.4066 65.941 30.8537 66.2707 31.1833L68.7853 33.698L66.2707 36.2127C65.941 36.5424 65.7559 36.9895 65.7559 37.4556C65.7559 37.9218 65.941 38.3689 66.2707 38.6986ZM85.0592 38.6986C85.4023 39.0419 85.8523 39.2135 86.3021 39.2135C86.7519 39.2135 87.2019 39.0419 87.545 38.6986L90.0597 36.1839L92.5744 38.6986C92.9175 39.0419 93.3675 39.2135 93.8173 39.2135C94.2671 39.2135 94.7171 39.0419 95.0603 38.6986C95.3899 38.3689 95.575 37.9218 95.575 37.4556C95.575 36.9895 95.3899 36.5424 95.0603 36.2127L92.5456 33.698L95.0603 31.1833C95.7468 30.4968 95.7468 29.384 95.0603 28.6975C94.3737 28.011 93.2607 28.011 92.5744 28.6975L90.0597 31.2122L87.545 28.6975C87.2154 28.3679 86.7683 28.1827 86.3021 28.1827C85.8359 28.1827 85.3888 28.3679 85.0592 28.6975C84.7296 29.0272 84.5444 29.4742 84.5444 29.9404C84.5444 30.4066 84.7296 30.8537 85.0592 31.1833L87.5739 33.698L85.0592 36.2127C84.8959 36.3759 84.7663 36.5697 84.678 36.7829C84.5896 36.9962 84.5441 37.2248 84.5441 37.4556C84.5441 37.6865 84.5896 37.9151 84.678 38.1284C84.7663 38.3416 84.8959 38.5354 85.0592 38.6986ZM70.0273 51.2446C69.7054 51.576 69.527 52.0209 69.5305 52.483C69.5341 52.9451 69.7195 53.3871 70.0465 53.7136C70.3735 54.04 70.8159 54.2246 71.2779 54.2274C71.74 54.2302 72.1846 54.051 72.5155 53.7285C74.572 51.6683 77.5425 50.4868 80.6655 50.4868C83.7884 50.4868 86.7591 51.6683 88.8156 53.7285C88.9787 53.8919 89.1723 54.0216 89.3855 54.1102C89.5987 54.1987 89.8273 54.2444 90.0581 54.2446C90.289 54.2448 90.5176 54.1995 90.7309 54.1113C90.9443 54.0231 91.1381 53.8938 91.3015 53.7307C91.6314 53.4013 91.8169 52.9543 91.8173 52.4882C91.8177 52.022 91.6329 51.5747 91.3036 51.2448C88.5925 48.5288 84.7149 46.9713 80.6652 46.9713C76.616 46.9708 72.7384 48.5285 70.0273 51.2446Z" fill="black"/>
</svg>
