<svg width="16" height="19" viewBox="0 0 16 19" fill="none" xmlns="http://www.w3.org/2000/svg">
<path d="M15.3689 14.2875C15.0916 14.928 14.7634 15.5176 14.3832 16.0596C13.8649 16.7986 13.4405 17.3101 13.1135 17.5942C12.6065 18.0604 12.0633 18.2992 11.4816 18.3128C11.0641 18.3128 10.5605 18.1939 9.97428 17.9529C9.38616 17.713 8.84568 17.5942 8.35149 17.5942C7.83319 17.5942 7.27733 17.713 6.68276 17.9529C6.08728 18.1939 5.60757 18.3196 5.24081 18.332C4.68302 18.3558 4.12704 18.1102 3.57207 17.5942C3.21787 17.2852 2.77483 16.7556 2.24408 16.0053C1.67464 15.2041 1.20647 14.275 0.839703 13.2158C0.446907 12.0717 0.25 10.9638 0.25 9.89123C0.25 8.6626 0.515485 7.60292 1.04725 6.71491C1.46517 6.00163 2.02115 5.43897 2.717 5.02592C3.41285 4.61286 4.16472 4.40238 4.97442 4.38891C5.41746 4.38891 5.99845 4.52595 6.72044 4.79529C7.4404 5.06552 7.90268 5.20257 8.10536 5.20257C8.25688 5.20257 8.77043 5.04233 9.64101 4.72286C10.4643 4.42659 11.1591 4.30392 11.7283 4.35224C13.2708 4.47673 14.4296 5.08476 15.2002 6.1802C13.8208 7.01604 13.1384 8.18674 13.152 9.68855C13.1644 10.8583 13.5888 11.8318 14.4228 12.6047C14.8008 12.9634 15.2229 13.2407 15.6925 13.4376C15.5907 13.733 15.4832 14.0159 15.3689 14.2875ZM11.8313 0.367015C11.8313 1.28389 11.4963 2.13998 10.8287 2.93236C10.0229 3.87435 9.04836 4.41867 7.99151 4.33278C7.97804 4.22278 7.97024 4.10701 7.97024 3.98536C7.97024 3.10516 8.35341 2.16317 9.03387 1.39297C9.3736 1.003 9.80566 0.678752 10.3296 0.420089C10.8524 0.165286 11.347 0.0243746 11.8121 0.000244141C11.8257 0.122816 11.8313 0.245396 11.8313 0.367003V0.367015Z" fill="black"/>
</svg>
