<svg width="29" height="28" viewBox="0 0 29 28" fill="none" xmlns="http://www.w3.org/2000/svg">
<path d="M14.498 4.97858C9.52357 4.97858 5.47656 9.02559 5.47656 14C5.47656 18.9744 9.52357 23.0214 14.498 23.0214C19.4724 23.0214 23.5194 18.9744 23.5194 14C23.5194 9.02559 19.4724 4.97858 14.498 4.97858ZM14.498 21.3812C10.428 21.3812 7.11682 18.07 7.11682 14C7.11682 9.93002 10.428 6.61883 14.498 6.61883C18.568 6.61883 21.8791 9.93002 21.8791 14C21.8791 18.07 18.568 21.3812 14.498 21.3812Z" fill="black"/>
<path d="M18.0197 10.9597L13.6788 15.3005L10.9782 12.6C10.6579 12.2797 10.1386 12.2797 9.81834 12.6C9.49805 12.9202 9.49805 13.4395 9.81834 13.7598L13.0989 17.0403C13.259 17.2004 13.4689 17.2805 13.6787 17.2805C13.8886 17.2805 14.0985 17.2005 14.2586 17.0403L19.1794 12.1195C19.4997 11.7992 19.4997 11.28 19.1794 10.9597C18.8592 10.6394 18.3399 10.6394 18.0197 10.9597Z" fill="black"/>
<path d="M27.3259 8.24981C27.3232 8.24812 24.4615 6.53514 24.4615 6.53514L23.8191 3.87475C23.5341 2.69426 22.4486 1.90524 21.2376 1.99917L17.9766 2.25156C17.9766 2.25156 16.0981 0.593691 16.0944 0.590575C15.1699 -0.196858 13.8279 -0.196858 12.9035 0.590575C12.8998 0.593691 11.0213 2.25156 11.0213 2.25156L7.76021 1.99917C6.55894 1.9059 5.48178 2.68114 5.18599 3.84534L4.29172 6.6948C4.29172 6.6948 1.67786 8.24768 1.67442 8.24981C0.639796 8.88569 0.225084 10.162 0.688403 11.2846L1.80422 13.9885L0.688403 16.6924C0.225084 17.815 0.639796 19.0913 1.67447 19.7272C1.67764 19.7292 4.53377 21.431 4.53377 21.431L5.17883 24.1023C5.44849 25.2192 6.43472 25.9855 7.56573 25.9854C7.73872 25.9854 7.54441 25.9919 10.9874 25.7281C10.9874 25.7281 12.9005 27.4068 12.9035 27.4094C13.3657 27.8031 13.9323 28 14.499 28C15.0656 28 15.6322 27.8031 16.0945 27.4094C16.0975 27.4068 18.0106 25.7281 18.0106 25.7281L21.2377 25.9778C22.4483 26.0714 23.5342 25.2827 23.8192 24.1023L24.4615 21.4418C27.9633 19.3457 27.2208 19.792 27.326 19.7271C28.3605 19.0913 28.7753 17.815 28.3119 16.6924L27.1961 13.9884L28.3119 11.2845C28.7752 10.162 28.3605 8.88574 27.3259 8.24981ZM25.5507 14.3014L26.7957 17.3182C26.9496 17.6912 26.8128 18.1151 26.4704 18.3278L23.3239 20.2113C23.135 20.3243 22.9995 20.5085 22.9479 20.7224L22.2247 23.7174C22.1297 24.1108 21.7684 24.3737 21.3642 24.3426L17.7926 24.0661C17.5726 24.0491 17.3544 24.1216 17.1884 24.2674L15.0269 26.1641C14.7202 26.4223 14.2777 26.4223 13.9709 26.164L11.8096 24.2674C11.6435 24.1216 11.4253 24.0489 11.2054 24.0661L7.6338 24.3426C7.22992 24.3737 6.86829 24.1108 6.77332 23.7173L6.04729 20.7106C5.99551 20.4961 5.85943 20.3115 5.66987 20.1985L2.52937 18.3273C2.18743 18.1145 2.05086 17.6909 2.20471 17.3181L3.44967 14.3013C3.53239 14.1009 3.53239 13.876 3.44967 13.6756L2.20455 10.6588C2.0508 10.2863 2.18722 9.8629 2.52877 9.64999L5.39922 7.94473C5.57287 7.84155 5.70234 7.67797 5.76281 7.48524C6.82067 4.11248 6.76097 4.31046 6.77321 4.25967C6.86818 3.86623 7.22882 3.60302 7.63369 3.63451L11.2406 3.91368C11.4619 3.93074 11.6803 3.85759 11.8466 3.71089L13.9717 1.83531C14.2781 1.57801 14.7196 1.57801 15.026 1.8352L17.1512 3.71089C17.3175 3.8577 17.5364 3.93074 17.7572 3.91368L21.3641 3.63451C21.7676 3.60335 22.1296 3.86617 22.2246 4.25972L22.9478 7.25462C22.9995 7.46856 23.135 7.65276 23.3238 7.76583L26.4703 9.64928C26.8127 9.86192 26.9496 10.2858 26.7956 10.6588L25.5507 13.6756C25.468 13.8761 25.468 14.101 25.5507 14.3014Z" fill="black"/>
</svg>
