<svg width="29" height="28" viewBox="0 0 29 28" fill="none" xmlns="http://www.w3.org/2000/svg">
<path d="M26.8526 16.4706H18.8918V14.2745H21.9114C22.2146 14.2745 22.4604 14.0287 22.4604 13.7255V13.1765H25.2055C25.5087 13.1765 25.7545 12.9307 25.7545 12.6275V9.88235C25.7545 9.57913 25.5087 9.33333 25.2055 9.33333C24.9434 9.33333 16.3981 9.33333 16.1467 9.33333V8.92898C17.2874 8.33274 18.0682 7.13857 18.0682 5.76471C18.0682 5.13751 18.0682 2.90151 18.0682 1.93985C18.0682 0.870251 17.198 0 16.1284 0H9.83295C9.52973 0 9.28393 0.245796 9.28393 0.54902V1.35427C9.28393 2.32438 9.9998 3.1304 10.931 3.27205V5.76471C10.931 7.13852 11.7118 8.33269 12.8526 8.92898V9.33333C12.6009 9.33333 4.05534 9.33333 3.79373 9.33333C3.49051 9.33333 3.24471 9.57913 3.24471 9.88235V12.6275C3.24471 12.9307 3.49051 13.1765 3.79373 13.1765H6.53883V13.7255C6.53883 14.0287 6.78463 14.2745 7.08785 14.2745H10.1075V16.4706H2.14668C1.84345 16.4706 1.59766 16.7164 1.59766 17.0196V20.8627C1.59766 21.1659 1.84345 21.4118 2.14668 21.4118H10.1075V27.451C10.1075 27.7541 10.3533 28 10.6565 28H18.3428C18.646 28 18.8918 27.7541 18.8918 27.451V21.4118H26.8526C27.1558 21.4118 27.4016 21.1659 27.4016 20.8627V17.0196C27.4016 16.7164 27.1558 16.4706 26.8526 16.4706ZM22.4604 10.4314H24.6565V12.0784H22.4604V10.4314ZM6.53883 12.0784H4.34275V10.4314H6.53883V12.0784ZM11.2238 2.19608C10.7596 2.19608 10.382 1.81846 10.382 1.35427V1.09804H16.1284C16.5926 1.09804 16.9702 1.47565 16.9702 1.93985V2.19608C16.381 2.19608 12.0604 2.19608 11.2238 2.19608ZM12.029 5.76471V3.29412H16.9702V5.76471C16.9702 7.12704 15.8619 8.23529 14.4996 8.23529C13.1373 8.23529 12.029 7.12704 12.029 5.76471ZM15.0486 9.29106V10.4314C15.0486 10.7341 14.8023 10.9804 14.4996 10.9804C14.1969 10.9804 13.9506 10.7341 13.9506 10.4314V9.29106C14.3028 9.34569 14.6733 9.3492 15.0486 9.29106ZM7.63687 13.1765C7.63687 12.6914 7.63687 11.1695 7.63687 10.4314H12.8526C12.8526 11.3396 13.5914 12.0784 14.4996 12.0784C15.4078 12.0784 16.1467 11.3396 16.1467 10.4314H21.3624V13.1765H18.3428C18.0395 13.1765 17.7937 13.4223 17.7937 13.7255V16.4706H11.2055V13.7255C11.2055 13.4223 10.9597 13.1765 10.6565 13.1765H7.63687ZM13.9506 26.902H11.2055V21.4118H13.9506V26.902ZM17.7937 26.902H15.0486V21.4118H17.7937V26.902ZM26.3035 20.3137C25.4948 20.3137 3.5044 20.3137 2.6957 20.3137V17.5686H4.34275V18.6667C4.34275 18.9698 4.58855 19.2157 4.89177 19.2157C5.195 19.2157 5.44079 18.9698 5.44079 18.6667V17.5686H7.08785V18.6667C7.08785 18.9698 7.33365 19.2157 7.63687 19.2157C7.94009 19.2157 8.18589 18.9698 8.18589 18.6667V17.5686H9.83295V18.6667C9.83295 18.9698 10.0787 19.2157 10.382 19.2157C10.6852 19.2157 10.931 18.9698 10.931 18.6667V17.5686H12.578V18.6667C12.578 18.9698 12.8238 19.2157 13.1271 19.2157C13.4303 19.2157 13.6761 18.9698 13.6761 18.6667V17.5686H15.3231V18.6667C15.3231 18.9698 15.5689 19.2157 15.8722 19.2157C16.1754 19.2157 16.4212 18.9698 16.4212 18.6667V17.5686H18.0682V18.6667C18.0682 18.9698 18.314 19.2157 18.6173 19.2157C18.9205 19.2157 19.1663 18.9698 19.1663 18.6667V17.5686H20.8133V18.6667C20.8133 18.9698 21.0591 19.2157 21.3624 19.2157C21.6656 19.2157 21.9114 18.9698 21.9114 18.6667V17.5686H23.5584V18.6667C23.5584 18.9698 23.8042 19.2157 24.1075 19.2157C24.4107 19.2157 24.6565 18.9698 24.6565 18.6667V17.5686H26.3035V20.3137Z" fill="black"/>
</svg>
