<svg width="24" height="24" viewBox="0 0 24 24" fill="none"
    xmlns="http://www.w3.org/2000/svg">
    <path fill-rule="evenodd" clip-rule="evenodd" d="M7.14284 6H2.85718H1.99997L2.00005 5L1.99997 4.5L1.99997 4H7.99989V4.5L7.99997 5L7.99989 6H7.14284ZM2.85718 13H7.14284H7.99989L7.99997 12L7.99989 11.5V11H1.99997L1.99997 11.5L2.00005 12L1.99997 13H2.85718ZM4.85735 20H19.1429H21.9997L22 19C22 18.7348 21.9997 18.5 21.9997 18.5V18H1.99998L1.99997 18.5C1.99997 18.5 2.00025 18.7348 2.00025 19L1.99997 20H4.85735ZM15.5 15C16.4131 15 17.2742 14.7776 18.0321 14.3838L20.0874 16.439L20.0858 16.4141L20.7929 15.707L21.1465 15.3535L21.5 15L19.6202 13.1433C20.4788 12.1731 21 10.8975 21 9.5C21 6.4624 18.5375 4 15.5 4C12.4624 4 9.99997 6.4624 9.99997 9.5C9.99997 12.5376 12.4624 15 15.5 15ZM15.5 13C17.433 13 19 11.4331 19 9.5C19 7.56689 17.433 6 15.5 6C13.567 6 12 7.56689 12 9.5C12 11.4331 13.567 13 15.5 13Z" fill="#1B1D25"/>
</svg>
